<?xml version="1.0" encoding="UTF-8" standalone="no"?>
<!DOCTYPE svg PUBLIC "-//W3C//DTD SVG 1.1//EN"
 "http://www.w3.org/Graphics/SVG/1.1/DTD/svg11.dtd">
<!-- Generated by graphviz version 2.40.1 (20161225.0304)
 -->
<!-- Title: BATCH_STEP_EXECUTION_CONTEXT Pages: 1 -->
<svg width="1039pt" height="952pt"
 viewBox="0.00 0.00 1039.00 952.00" xmlns="http://www.w3.org/2000/svg" xmlns:xlink="http://www.w3.org/1999/xlink">
<g id="graph0" class="graph" transform="scale(1 1) rotate(0) translate(4 948)">
<title>BATCH_STEP_EXECUTION_CONTEXT</title>
<polygon fill="#ffffff" stroke="transparent" points="-4,4 -4,-948 1035,-948 1035,4 -4,4"/>
<!-- BATCH_STEP_EXECUTION_CONTEXT -->
<g id="node1" class="node">
<title>BATCH_STEP_EXECUTION_CONTEXT</title>
<polygon fill="#efefef" stroke="transparent" points="46,-862.5 46,-897.5 516,-897.5 516,-862.5 46,-862.5"/>
<polygon fill="none" stroke="#000000" points="46,-862.5 46,-897.5 516,-897.5 516,-862.5 46,-862.5"/>
<text text-anchor="start" x="52.7122" y="-875.3" font-family="Arial Bold" font-size="18.00" fill="#000000">BATCH_STEP_EXECUTION_CONTEXT</text>
<text text-anchor="start" x="381.7198" y="-875.3" font-family="Arial" font-size="14.00" fill="#000000">    </text>
<text text-anchor="start" x="415.9246" y="-875.3" font-family="Arial" font-size="14.00" fill="#666666">[BASE TABLE]</text>
<polygon fill="none" stroke="#000000" points="46,-832.5 46,-862.5 516,-862.5 516,-832.5 46,-832.5"/>
<text text-anchor="start" x="53" y="-843.9" font-family="Arial" font-size="14.00" fill="#000000">STEP_EXECUTION_ID </text>
<text text-anchor="start" x="204.6788" y="-843.9" font-family="Arial" font-size="14.00" fill="#666666">[bigint]</text>
<polygon fill="none" stroke="#000000" points="46,-802.5 46,-832.5 516,-832.5 516,-802.5 46,-802.5"/>
<text text-anchor="start" x="53" y="-813.9" font-family="Arial" font-size="14.00" fill="#000000">SHORT_CONTEXT </text>
<text text-anchor="start" x="180.5484" y="-813.9" font-family="Arial" font-size="14.00" fill="#666666">[varchar(2500)]</text>
<polygon fill="none" stroke="#000000" points="46,-772.5 46,-802.5 516,-802.5 516,-772.5 46,-772.5"/>
<text text-anchor="start" x="53" y="-783.9" font-family="Arial" font-size="14.00" fill="#000000">SERIALIZED_CONTEXT </text>
<text text-anchor="start" x="213.2314" y="-783.9" font-family="Arial" font-size="14.00" fill="#666666">[text]</text>
<polygon fill="none" stroke="#000000" stroke-width="3" points="44.5,-771.5 44.5,-899.5 517.5,-899.5 517.5,-771.5 44.5,-771.5"/>
</g>
<!-- BATCH_STEP_EXECUTION -->
<g id="node2" class="node">
<title>BATCH_STEP_EXECUTION</title>
<polygon fill="#efefef" stroke="transparent" points="94,-612.5 94,-647.5 468,-647.5 468,-612.5 94,-612.5"/>
<polygon fill="none" stroke="#000000" points="94,-612.5 94,-647.5 468,-647.5 468,-612.5 94,-612.5"/>
<text text-anchor="start" x="100.711" y="-625.3" font-family="Arial Bold" font-size="18.00" fill="#000000">BATCH_STEP_EXECUTION</text>
<text text-anchor="start" x="333.721" y="-625.3" font-family="Arial" font-size="14.00" fill="#000000">    </text>
<text text-anchor="start" x="367.9258" y="-625.3" font-family="Arial" font-size="14.00" fill="#666666">[BASE TABLE]</text>
<polygon fill="none" stroke="#000000" points="94,-582.5 94,-612.5 468,-612.5 468,-582.5 94,-582.5"/>
<text text-anchor="start" x="101" y="-593.9" font-family="Arial" font-size="14.00" fill="#000000">STEP_EXECUTION_ID    </text>
<text text-anchor="start" x="282.993" y="-593.9" font-family="Arial" font-size="14.00" fill="#666666">[bigint]</text>
<polygon fill="none" stroke="#000000" points="94,-552.5 94,-582.5 468,-582.5 468,-552.5 94,-552.5"/>
<text text-anchor="start" x="101" y="-563.9" font-family="Arial" font-size="14.00" fill="#000000">VERSION    </text>
<text text-anchor="start" x="198.209" y="-563.9" font-family="Arial" font-size="14.00" fill="#666666">[bigint]</text>
<polygon fill="none" stroke="#000000" points="94,-522.5 94,-552.5 468,-552.5 468,-522.5 94,-522.5"/>
<text text-anchor="start" x="101" y="-533.9" font-family="Arial" font-size="14.00" fill="#000000">STEP_NAME    </text>
<text text-anchor="start" x="219.9902" y="-533.9" font-family="Arial" font-size="14.00" fill="#666666">[varchar(100)]</text>
<polygon fill="none" stroke="#000000" points="94,-492.5 94,-522.5 468,-522.5 468,-492.5 94,-492.5"/>
<text text-anchor="start" x="101" y="-503.9" font-family="Arial" font-size="14.00" fill="#000000">JOB_EXECUTION_ID    </text>
<text text-anchor="start" x="273.6578" y="-503.9" font-family="Arial" font-size="14.00" fill="#666666">[bigint]</text>
<polygon fill="none" stroke="#000000" points="94,-462.5 94,-492.5 468,-492.5 468,-462.5 94,-462.5"/>
<text text-anchor="start" x="101" y="-473.9" font-family="Arial" font-size="14.00" fill="#000000">CREATE_TIME    </text>
<text text-anchor="start" x="233.2034" y="-473.9" font-family="Arial" font-size="14.00" fill="#666666">[datetime(6)]</text>
<polygon fill="none" stroke="#000000" points="94,-432.5 94,-462.5 468,-462.5 468,-432.5 94,-432.5"/>
<text text-anchor="start" x="101" y="-443.9" font-family="Arial" font-size="14.00" fill="#000000">START_TIME    </text>
<text text-anchor="start" x="222.3128" y="-443.9" font-family="Arial" font-size="14.00" fill="#666666">[datetime(6)]</text>
<polygon fill="none" stroke="#000000" points="94,-402.5 94,-432.5 468,-432.5 468,-402.5 94,-402.5"/>
<text text-anchor="start" x="101" y="-413.9" font-family="Arial" font-size="14.00" fill="#000000">END_TIME    </text>
<text text-anchor="start" x="205.9776" y="-413.9" font-family="Arial" font-size="14.00" fill="#666666">[datetime(6)]</text>
<polygon fill="none" stroke="#000000" points="94,-372.5 94,-402.5 468,-402.5 468,-372.5 94,-372.5"/>
<text text-anchor="start" x="101" y="-383.9" font-family="Arial" font-size="14.00" fill="#000000">STATUS    </text>
<text text-anchor="start" x="190.4264" y="-383.9" font-family="Arial" font-size="14.00" fill="#666666">[varchar(10)]</text>
<polygon fill="none" stroke="#000000" points="94,-342.5 94,-372.5 468,-372.5 468,-342.5 94,-342.5"/>
<text text-anchor="start" x="101" y="-353.9" font-family="Arial" font-size="14.00" fill="#000000">COMMIT_COUNT    </text>
<text text-anchor="start" x="249.512" y="-353.9" font-family="Arial" font-size="14.00" fill="#666666">[bigint]</text>
<polygon fill="none" stroke="#000000" points="94,-312.5 94,-342.5 468,-342.5 468,-312.5 94,-312.5"/>
<text text-anchor="start" x="101" y="-323.9" font-family="Arial" font-size="14.00" fill="#000000">READ_COUNT    </text>
<text text-anchor="start" x="231.6368" y="-323.9" font-family="Arial" font-size="14.00" fill="#666666">[bigint]</text>
<polygon fill="none" stroke="#000000" points="94,-282.5 94,-312.5 468,-312.5 468,-282.5 94,-282.5"/>
<text text-anchor="start" x="101" y="-293.9" font-family="Arial" font-size="14.00" fill="#000000">FILTER_COUNT    </text>
<text text-anchor="start" x="240.972" y="-293.9" font-family="Arial" font-size="14.00" fill="#666666">[bigint]</text>
<polygon fill="none" stroke="#000000" points="94,-252.5 94,-282.5 468,-282.5 468,-252.5 94,-252.5"/>
<text text-anchor="start" x="101" y="-263.9" font-family="Arial" font-size="14.00" fill="#000000">WRITE_COUNT    </text>
<text text-anchor="start" x="237.8514" y="-263.9" font-family="Arial" font-size="14.00" fill="#666666">[bigint]</text>
<polygon fill="none" stroke="#000000" points="94,-222.5 94,-252.5 468,-252.5 468,-222.5 94,-222.5"/>
<text text-anchor="start" x="101" y="-233.9" font-family="Arial" font-size="14.00" fill="#000000">READ_SKIP_COUNT    </text>
<text text-anchor="start" x="271.3198" y="-233.9" font-family="Arial" font-size="14.00" fill="#666666">[bigint]</text>
<polygon fill="none" stroke="#000000" points="94,-192.5 94,-222.5 468,-222.5 468,-192.5 94,-192.5"/>
<text text-anchor="start" x="101" y="-203.9" font-family="Arial" font-size="14.00" fill="#000000">WRITE_SKIP_COUNT    </text>
<text text-anchor="start" x="277.5344" y="-203.9" font-family="Arial" font-size="14.00" fill="#666666">[bigint]</text>
<polygon fill="none" stroke="#000000" points="94,-162.5 94,-192.5 468,-192.5 468,-162.5 94,-162.5"/>
<text text-anchor="start" x="101" y="-173.9" font-family="Arial" font-size="14.00" fill="#000000">PROCESS_SKIP_COUNT    </text>
<text text-anchor="start" x="300.8836" y="-173.9" font-family="Arial" font-size="14.00" fill="#666666">[bigint]</text>
<polygon fill="none" stroke="#000000" points="94,-132.5 94,-162.5 468,-162.5 468,-132.5 94,-132.5"/>
<text text-anchor="start" x="101" y="-143.9" font-family="Arial" font-size="14.00" fill="#000000">ROLLBACK_COUNT    </text>
<text text-anchor="start" x="267.4292" y="-143.9" font-family="Arial" font-size="14.00" fill="#666666">[bigint]</text>
<polygon fill="none" stroke="#000000" points="94,-102.5 94,-132.5 468,-132.5 468,-102.5 94,-102.5"/>
<text text-anchor="start" x="101" y="-113.9" font-family="Arial" font-size="14.00" fill="#000000">EXIT_CODE    </text>
<text text-anchor="start" x="214.5442" y="-113.9" font-family="Arial" font-size="14.00" fill="#666666">[varchar(2500)]</text>
<polygon fill="none" stroke="#000000" points="94,-72.5 94,-102.5 468,-102.5 468,-72.5 94,-72.5"/>
<text text-anchor="start" x="101" y="-83.9" font-family="Arial" font-size="14.00" fill="#000000">EXIT_MESSAGE    </text>
<text text-anchor="start" x="243.338" y="-83.9" font-family="Arial" font-size="14.00" fill="#666666">[varchar(2500)]</text>
<polygon fill="none" stroke="#000000" points="94,-42.5 94,-72.5 468,-72.5 468,-42.5 94,-42.5"/>
<text text-anchor="start" x="101" y="-53.9" font-family="Arial" font-size="14.00" fill="#000000">LAST_UPDATED    </text>
<text text-anchor="start" x="244.878" y="-53.9" font-family="Arial" font-size="14.00" fill="#666666">[datetime(6)]</text>
</g>
<!-- BATCH_STEP_EXECUTION_CONTEXT&#45;&gt;BATCH_STEP_EXECUTION -->
<g id="edge1" class="edge">
<title>BATCH_STEP_EXECUTION_CONTEXT:STEP_EXECUTION_ID&#45;&gt;BATCH_STEP_EXECUTION:STEP_EXECUTION_ID</title>
<path fill="none" stroke="#000000" d="M526.1378,-846.7828C626.077,-832.1191 577.6049,-597.5 468,-597.5"/>
<polygon fill="#000000" stroke="#000000" points="525.9751,-846.7943 515.6824,-843.0112 520.9875,-847.1471 516,-847.5 516,-847.5 516,-847.5 520.9875,-847.1471 516.3176,-851.9888 525.9751,-846.7943 525.9751,-846.7943"/>
<text text-anchor="start" x="523.1615" y="-857.5" font-family="Arial" font-size="10.00" fill="#000000">FOREIGN KEY (STEP_EXECUTION_ID) REFERENCES BATCH_STEP_EXECUTION (STEP_EXECUTION_ID)</text>
</g>
</g>
</svg>
