<?xml version="1.0" encoding="UTF-8" standalone="no"?>
<!DOCTYPE svg PUBLIC "-//W3C//DTD SVG 1.1//EN"
 "http://www.w3.org/Graphics/SVG/1.1/DTD/svg11.dtd">
<!-- Generated by graphviz version 2.40.1 (20161225.0304)
 -->
<!-- Title: BATCH_JOB_EXECUTION Pages: 1 -->
<svg width="1582pt" height="1439pt"
 viewBox="0.00 0.00 1582.00 1439.00" xmlns="http://www.w3.org/2000/svg" xmlns:xlink="http://www.w3.org/1999/xlink">
<g id="graph0" class="graph" transform="scale(1 1) rotate(0) translate(4 1435)">
<title>BATCH_JOB_EXECUTION</title>
<polygon fill="#ffffff" stroke="transparent" points="-4,4 -4,-1435 1578,-1435 1578,4 -4,4"/>
<!-- BATCH_JOB_EXECUTION -->
<g id="node1" class="node">
<title>BATCH_JOB_EXECUTION</title>
<polygon fill="#efefef" stroke="transparent" points="648,-622.5 648,-657.5 1010,-657.5 1010,-622.5 648,-622.5"/>
<polygon fill="none" stroke="#000000" points="648,-622.5 648,-657.5 1010,-657.5 1010,-622.5 648,-622.5"/>
<text text-anchor="start" x="654.7122" y="-635.3" font-family="Arial Bold" font-size="18.00" fill="#000000">BATCH_JOB_EXECUTION</text>
<text text-anchor="start" x="875.7198" y="-635.3" font-family="Arial" font-size="14.00" fill="#000000">    </text>
<text text-anchor="start" x="909.9246" y="-635.3" font-family="Arial" font-size="14.00" fill="#666666">[BASE TABLE]</text>
<polygon fill="none" stroke="#000000" points="648,-592.5 648,-622.5 1010,-622.5 1010,-592.5 648,-592.5"/>
<text text-anchor="start" x="655" y="-603.9" font-family="Arial" font-size="14.00" fill="#000000">JOB_EXECUTION_ID </text>
<text text-anchor="start" x="797.3436" y="-603.9" font-family="Arial" font-size="14.00" fill="#666666">[bigint]</text>
<polygon fill="none" stroke="#000000" points="648,-562.5 648,-592.5 1010,-592.5 1010,-562.5 648,-562.5"/>
<text text-anchor="start" x="655" y="-573.9" font-family="Arial" font-size="14.00" fill="#000000">VERSION </text>
<text text-anchor="start" x="721.8948" y="-573.9" font-family="Arial" font-size="14.00" fill="#666666">[bigint]</text>
<polygon fill="none" stroke="#000000" points="648,-532.5 648,-562.5 1010,-562.5 1010,-532.5 648,-532.5"/>
<text text-anchor="start" x="655" y="-543.9" font-family="Arial" font-size="14.00" fill="#000000">JOB_INSTANCE_ID </text>
<text text-anchor="start" x="786.453" y="-543.9" font-family="Arial" font-size="14.00" fill="#666666">[bigint]</text>
<polygon fill="none" stroke="#000000" points="648,-502.5 648,-532.5 1010,-532.5 1010,-502.5 648,-502.5"/>
<text text-anchor="start" x="655" y="-513.9" font-family="Arial" font-size="14.00" fill="#000000">CREATE_TIME </text>
<text text-anchor="start" x="756.8892" y="-513.9" font-family="Arial" font-size="14.00" fill="#666666">[datetime(6)]</text>
<polygon fill="none" stroke="#000000" points="648,-472.5 648,-502.5 1010,-502.5 1010,-472.5 648,-472.5"/>
<text text-anchor="start" x="655" y="-483.9" font-family="Arial" font-size="14.00" fill="#000000">START_TIME </text>
<text text-anchor="start" x="745.9986" y="-483.9" font-family="Arial" font-size="14.00" fill="#666666">[datetime(6)]</text>
<polygon fill="none" stroke="#000000" points="648,-442.5 648,-472.5 1010,-472.5 1010,-442.5 648,-442.5"/>
<text text-anchor="start" x="655" y="-453.9" font-family="Arial" font-size="14.00" fill="#000000">END_TIME </text>
<text text-anchor="start" x="729.6634" y="-453.9" font-family="Arial" font-size="14.00" fill="#666666">[datetime(6)]</text>
<polygon fill="none" stroke="#000000" points="648,-412.5 648,-442.5 1010,-442.5 1010,-412.5 648,-412.5"/>
<text text-anchor="start" x="655" y="-423.9" font-family="Arial" font-size="14.00" fill="#000000">STATUS </text>
<text text-anchor="start" x="714.1122" y="-423.9" font-family="Arial" font-size="14.00" fill="#666666">[varchar(10)]</text>
<polygon fill="none" stroke="#000000" points="648,-382.5 648,-412.5 1010,-412.5 1010,-382.5 648,-382.5"/>
<text text-anchor="start" x="655" y="-393.9" font-family="Arial" font-size="14.00" fill="#000000">EXIT_CODE </text>
<text text-anchor="start" x="738.23" y="-393.9" font-family="Arial" font-size="14.00" fill="#666666">[varchar(2500)]</text>
<polygon fill="none" stroke="#000000" points="648,-352.5 648,-382.5 1010,-382.5 1010,-352.5 648,-352.5"/>
<text text-anchor="start" x="655" y="-363.9" font-family="Arial" font-size="14.00" fill="#000000">EXIT_MESSAGE </text>
<text text-anchor="start" x="767.0238" y="-363.9" font-family="Arial" font-size="14.00" fill="#666666">[varchar(2500)]</text>
<polygon fill="none" stroke="#000000" points="648,-322.5 648,-352.5 1010,-352.5 1010,-322.5 648,-322.5"/>
<text text-anchor="start" x="655" y="-333.9" font-family="Arial" font-size="14.00" fill="#000000">LAST_UPDATED </text>
<text text-anchor="start" x="768.5638" y="-333.9" font-family="Arial" font-size="14.00" fill="#666666">[datetime(6)]</text>
<polygon fill="none" stroke="#000000" stroke-width="3" points="646.5,-321.5 646.5,-659.5 1011.5,-659.5 1011.5,-321.5 646.5,-321.5"/>
</g>
<!-- BATCH_JOB_INSTANCE -->
<g id="node5" class="node">
<title>BATCH_JOB_INSTANCE</title>
<polygon fill="#efefef" stroke="transparent" points="655,-162.5 655,-197.5 1003,-197.5 1003,-162.5 655,-162.5"/>
<polygon fill="none" stroke="#000000" points="655,-162.5 655,-197.5 1003,-197.5 1003,-162.5 655,-162.5"/>
<text text-anchor="start" x="661.7133" y="-175.3" font-family="Arial Bold" font-size="18.00" fill="#000000">BATCH_JOB_INSTANCE</text>
<text text-anchor="start" x="868.7187" y="-175.3" font-family="Arial" font-size="14.00" fill="#000000">    </text>
<text text-anchor="start" x="902.9235" y="-175.3" font-family="Arial" font-size="14.00" fill="#666666">[BASE TABLE]</text>
<polygon fill="none" stroke="#000000" points="655,-132.5 655,-162.5 1003,-162.5 1003,-132.5 655,-132.5"/>
<text text-anchor="start" x="662" y="-143.9" font-family="Arial" font-size="14.00" fill="#000000">JOB_INSTANCE_ID    </text>
<text text-anchor="start" x="823.7672" y="-143.9" font-family="Arial" font-size="14.00" fill="#666666">[bigint]</text>
<polygon fill="none" stroke="#000000" points="655,-102.5 655,-132.5 1003,-132.5 1003,-102.5 655,-102.5"/>
<text text-anchor="start" x="662" y="-113.9" font-family="Arial" font-size="14.00" fill="#000000">VERSION    </text>
<text text-anchor="start" x="759.209" y="-113.9" font-family="Arial" font-size="14.00" fill="#666666">[bigint]</text>
<polygon fill="none" stroke="#000000" points="655,-72.5 655,-102.5 1003,-102.5 1003,-72.5 655,-72.5"/>
<text text-anchor="start" x="662" y="-83.9" font-family="Arial" font-size="14.00" fill="#000000">JOB_NAME    </text>
<text text-anchor="start" x="771.655" y="-83.9" font-family="Arial" font-size="14.00" fill="#666666">[varchar(100)]</text>
<polygon fill="none" stroke="#000000" points="655,-42.5 655,-72.5 1003,-72.5 1003,-42.5 655,-42.5"/>
<text text-anchor="start" x="662" y="-53.9" font-family="Arial" font-size="14.00" fill="#000000">JOB_KEY    </text>
<text text-anchor="start" x="759.2244" y="-53.9" font-family="Arial" font-size="14.00" fill="#666666">[varchar(32)]</text>
</g>
<!-- BATCH_JOB_EXECUTION&#45;&gt;BATCH_JOB_INSTANCE -->
<g id="edge4" class="edge">
<title>BATCH_JOB_EXECUTION:JOB_INSTANCE_ID&#45;&gt;BATCH_JOB_INSTANCE:JOB_INSTANCE_ID</title>
<path fill="none" stroke="#000000" d="M1020.2069,-547.0482C1187.4664,-532.0276 1177.3322,-147.5 1003,-147.5"/>
<polygon fill="#000000" stroke="#000000" points="1019.9902,-547.0577 1009.801,-543.0044 1014.9951,-547.2788 1010,-547.5 1010,-547.5 1010,-547.5 1014.9951,-547.2788 1010.199,-551.9956 1019.9902,-547.0577 1019.9902,-547.0577"/>
<text text-anchor="start" x="1016.832" y="-557.5" font-family="Arial" font-size="10.00" fill="#000000">FOREIGN KEY (JOB_INSTANCE_ID) REFERENCES BATCH_JOB_INSTANCE (JOB_INSTANCE_ID)</text>
</g>
<!-- BATCH_JOB_EXECUTION_CONTEXT -->
<g id="node2" class="node">
<title>BATCH_JOB_EXECUTION_CONTEXT</title>
<polygon fill="#efefef" stroke="transparent" points="43,-1112.5 43,-1147.5 501,-1147.5 501,-1112.5 43,-1112.5"/>
<polygon fill="none" stroke="#000000" points="43,-1112.5 43,-1147.5 501,-1147.5 501,-1112.5 43,-1112.5"/>
<text text-anchor="start" x="49.7134" y="-1125.3" font-family="Arial Bold" font-size="18.00" fill="#000000">BATCH_JOB_EXECUTION_CONTEXT</text>
<text text-anchor="start" x="366.7186" y="-1125.3" font-family="Arial" font-size="14.00" fill="#000000">    </text>
<text text-anchor="start" x="400.9234" y="-1125.3" font-family="Arial" font-size="14.00" fill="#666666">[BASE TABLE]</text>
<polygon fill="none" stroke="#000000" points="43,-1082.5 43,-1112.5 501,-1112.5 501,-1082.5 43,-1082.5"/>
<text text-anchor="start" x="50" y="-1093.9" font-family="Arial" font-size="14.00" fill="#000000">JOB_EXECUTION_ID    </text>
<text text-anchor="start" x="222.6578" y="-1093.9" font-family="Arial" font-size="14.00" fill="#666666">[bigint]</text>
<polygon fill="none" stroke="#000000" points="43,-1052.5 43,-1082.5 501,-1082.5 501,-1052.5 43,-1052.5"/>
<text text-anchor="start" x="50" y="-1063.9" font-family="Arial" font-size="14.00" fill="#000000">SHORT_CONTEXT    </text>
<text text-anchor="start" x="207.8626" y="-1063.9" font-family="Arial" font-size="14.00" fill="#666666">[varchar(2500)]</text>
<polygon fill="none" stroke="#000000" points="43,-1022.5 43,-1052.5 501,-1052.5 501,-1022.5 43,-1022.5"/>
<text text-anchor="start" x="50" y="-1033.9" font-family="Arial" font-size="14.00" fill="#000000">SERIALIZED_CONTEXT    </text>
<text text-anchor="start" x="240.5456" y="-1033.9" font-family="Arial" font-size="14.00" fill="#666666">[text]</text>
</g>
<!-- BATCH_JOB_EXECUTION_CONTEXT&#45;&gt;BATCH_JOB_EXECUTION -->
<g id="edge1" class="edge">
<title>BATCH_JOB_EXECUTION_CONTEXT:JOB_EXECUTION_ID&#45;&gt;BATCH_JOB_EXECUTION:JOB_EXECUTION_ID</title>
<path fill="none" stroke="#000000" d="M511.0007,-1095.831C576.2208,-1072.4913 524.3297,-811.1121 553,-740 580.095,-672.7952 575.5389,-607.5 648,-607.5"/>
<polygon fill="#000000" stroke="#000000" points="510.8636,-1095.8538 500.2592,-1093.0614 505.9318,-1096.6769 501,-1097.5 501,-1097.5 501,-1097.5 505.9318,-1096.6769 501.7408,-1101.9386 510.8636,-1095.8538 510.8636,-1095.8538"/>
<text text-anchor="start" x="508.1635" y="-1107.5" font-family="Arial" font-size="10.00" fill="#000000">FOREIGN KEY (JOB_EXECUTION_ID) REFERENCES BATCH_JOB_EXECUTION (JOB_EXECUTION_ID)</text>
</g>
<!-- BATCH_JOB_EXECUTION_PARAMS -->
<g id="node3" class="node">
<title>BATCH_JOB_EXECUTION_PARAMS</title>
<polygon fill="#efefef" stroke="transparent" points="605,-1142.5 605,-1177.5 1053,-1177.5 1053,-1142.5 605,-1142.5"/>
<polygon fill="none" stroke="#000000" points="605,-1142.5 605,-1177.5 1053,-1177.5 1053,-1142.5 605,-1142.5"/>
<text text-anchor="start" x="611.7075" y="-1155.3" font-family="Arial Bold" font-size="18.00" fill="#000000">BATCH_JOB_EXECUTION_PARAMS</text>
<text text-anchor="start" x="918.7245" y="-1155.3" font-family="Arial" font-size="14.00" fill="#000000">    </text>
<text text-anchor="start" x="952.9293" y="-1155.3" font-family="Arial" font-size="14.00" fill="#666666">[BASE TABLE]</text>
<polygon fill="none" stroke="#000000" points="605,-1112.5 605,-1142.5 1053,-1142.5 1053,-1112.5 605,-1112.5"/>
<text text-anchor="start" x="612" y="-1123.9" font-family="Arial" font-size="14.00" fill="#000000">JOB_EXECUTION_ID    </text>
<text text-anchor="start" x="784.6578" y="-1123.9" font-family="Arial" font-size="14.00" fill="#666666">[bigint]</text>
<polygon fill="none" stroke="#000000" points="605,-1082.5 605,-1112.5 1053,-1112.5 1053,-1082.5 605,-1082.5"/>
<text text-anchor="start" x="612" y="-1093.9" font-family="Arial" font-size="14.00" fill="#000000">PARAMETER_NAME    </text>
<text text-anchor="start" x="781.5372" y="-1093.9" font-family="Arial" font-size="14.00" fill="#666666">[varchar(100)]</text>
<polygon fill="none" stroke="#000000" points="605,-1052.5 605,-1082.5 1053,-1082.5 1053,-1052.5 605,-1052.5"/>
<text text-anchor="start" x="612" y="-1063.9" font-family="Arial" font-size="14.00" fill="#000000">PARAMETER_TYPE    </text>
<text text-anchor="start" x="777.6592" y="-1063.9" font-family="Arial" font-size="14.00" fill="#666666">[varchar(100)]</text>
<polygon fill="none" stroke="#000000" points="605,-1022.5 605,-1052.5 1053,-1052.5 1053,-1022.5 605,-1022.5"/>
<text text-anchor="start" x="612" y="-1033.9" font-family="Arial" font-size="14.00" fill="#000000">PARAMETER_VALUE    </text>
<text text-anchor="start" x="786.9958" y="-1033.9" font-family="Arial" font-size="14.00" fill="#666666">[varchar(2500)]</text>
<polygon fill="none" stroke="#000000" points="605,-992.5 605,-1022.5 1053,-1022.5 1053,-992.5 605,-992.5"/>
<text text-anchor="start" x="612" y="-1003.9" font-family="Arial" font-size="14.00" fill="#000000">IDENTIFYING    </text>
<text text-anchor="start" x="734.8654" y="-1003.9" font-family="Arial" font-size="14.00" fill="#666666">[char(1)]</text>
</g>
<!-- BATCH_JOB_EXECUTION_PARAMS&#45;&gt;BATCH_JOB_EXECUTION -->
<g id="edge2" class="edge">
<title>BATCH_JOB_EXECUTION_PARAMS:JOB_EXECUTION_ID&#45;&gt;BATCH_JOB_EXECUTION:JOB_EXECUTION_ID</title>
<path fill="none" stroke="#000000" d="M1061.895,-1122.6843C1106.0558,-1070.262 1064.6912,-607.5 1010,-607.5"/>
<polygon fill="#000000" stroke="#000000" points="1061.7939,-1122.7389 1050.8575,-1123.5427 1057.397,-1125.1195 1053,-1127.5 1053,-1127.5 1053,-1127.5 1057.397,-1125.1195 1055.1425,-1131.4573 1061.7939,-1122.7389 1061.7939,-1122.7389"/>
<text text-anchor="start" x="565.1635" y="-1137.5" font-family="Arial" font-size="10.00" fill="#000000">FOREIGN KEY (JOB_EXECUTION_ID) REFERENCES BATCH_JOB_EXECUTION (JOB_EXECUTION_ID)</text>
</g>
<!-- BATCH_STEP_EXECUTION -->
<g id="node4" class="node">
<title>BATCH_STEP_EXECUTION</title>
<polygon fill="#efefef" stroke="transparent" points="1157,-1352.5 1157,-1387.5 1531,-1387.5 1531,-1352.5 1157,-1352.5"/>
<polygon fill="none" stroke="#000000" points="1157,-1352.5 1157,-1387.5 1531,-1387.5 1531,-1352.5 1157,-1352.5"/>
<text text-anchor="start" x="1163.711" y="-1365.3" font-family="Arial Bold" font-size="18.00" fill="#000000">BATCH_STEP_EXECUTION</text>
<text text-anchor="start" x="1396.721" y="-1365.3" font-family="Arial" font-size="14.00" fill="#000000">    </text>
<text text-anchor="start" x="1430.9258" y="-1365.3" font-family="Arial" font-size="14.00" fill="#666666">[BASE TABLE]</text>
<polygon fill="none" stroke="#000000" points="1157,-1322.5 1157,-1352.5 1531,-1352.5 1531,-1322.5 1157,-1322.5"/>
<text text-anchor="start" x="1164" y="-1333.9" font-family="Arial" font-size="14.00" fill="#000000">STEP_EXECUTION_ID    </text>
<text text-anchor="start" x="1345.993" y="-1333.9" font-family="Arial" font-size="14.00" fill="#666666">[bigint]</text>
<polygon fill="none" stroke="#000000" points="1157,-1292.5 1157,-1322.5 1531,-1322.5 1531,-1292.5 1157,-1292.5"/>
<text text-anchor="start" x="1164" y="-1303.9" font-family="Arial" font-size="14.00" fill="#000000">VERSION    </text>
<text text-anchor="start" x="1261.209" y="-1303.9" font-family="Arial" font-size="14.00" fill="#666666">[bigint]</text>
<polygon fill="none" stroke="#000000" points="1157,-1262.5 1157,-1292.5 1531,-1292.5 1531,-1262.5 1157,-1262.5"/>
<text text-anchor="start" x="1164" y="-1273.9" font-family="Arial" font-size="14.00" fill="#000000">STEP_NAME    </text>
<text text-anchor="start" x="1282.9902" y="-1273.9" font-family="Arial" font-size="14.00" fill="#666666">[varchar(100)]</text>
<polygon fill="none" stroke="#000000" points="1157,-1232.5 1157,-1262.5 1531,-1262.5 1531,-1232.5 1157,-1232.5"/>
<text text-anchor="start" x="1164" y="-1243.9" font-family="Arial" font-size="14.00" fill="#000000">JOB_EXECUTION_ID    </text>
<text text-anchor="start" x="1336.6578" y="-1243.9" font-family="Arial" font-size="14.00" fill="#666666">[bigint]</text>
<polygon fill="none" stroke="#000000" points="1157,-1202.5 1157,-1232.5 1531,-1232.5 1531,-1202.5 1157,-1202.5"/>
<text text-anchor="start" x="1164" y="-1213.9" font-family="Arial" font-size="14.00" fill="#000000">CREATE_TIME    </text>
<text text-anchor="start" x="1296.2034" y="-1213.9" font-family="Arial" font-size="14.00" fill="#666666">[datetime(6)]</text>
<polygon fill="none" stroke="#000000" points="1157,-1172.5 1157,-1202.5 1531,-1202.5 1531,-1172.5 1157,-1172.5"/>
<text text-anchor="start" x="1164" y="-1183.9" font-family="Arial" font-size="14.00" fill="#000000">START_TIME    </text>
<text text-anchor="start" x="1285.3128" y="-1183.9" font-family="Arial" font-size="14.00" fill="#666666">[datetime(6)]</text>
<polygon fill="none" stroke="#000000" points="1157,-1142.5 1157,-1172.5 1531,-1172.5 1531,-1142.5 1157,-1142.5"/>
<text text-anchor="start" x="1164" y="-1153.9" font-family="Arial" font-size="14.00" fill="#000000">END_TIME    </text>
<text text-anchor="start" x="1268.9776" y="-1153.9" font-family="Arial" font-size="14.00" fill="#666666">[datetime(6)]</text>
<polygon fill="none" stroke="#000000" points="1157,-1112.5 1157,-1142.5 1531,-1142.5 1531,-1112.5 1157,-1112.5"/>
<text text-anchor="start" x="1164" y="-1123.9" font-family="Arial" font-size="14.00" fill="#000000">STATUS    </text>
<text text-anchor="start" x="1253.4264" y="-1123.9" font-family="Arial" font-size="14.00" fill="#666666">[varchar(10)]</text>
<polygon fill="none" stroke="#000000" points="1157,-1082.5 1157,-1112.5 1531,-1112.5 1531,-1082.5 1157,-1082.5"/>
<text text-anchor="start" x="1164" y="-1093.9" font-family="Arial" font-size="14.00" fill="#000000">COMMIT_COUNT    </text>
<text text-anchor="start" x="1312.512" y="-1093.9" font-family="Arial" font-size="14.00" fill="#666666">[bigint]</text>
<polygon fill="none" stroke="#000000" points="1157,-1052.5 1157,-1082.5 1531,-1082.5 1531,-1052.5 1157,-1052.5"/>
<text text-anchor="start" x="1164" y="-1063.9" font-family="Arial" font-size="14.00" fill="#000000">READ_COUNT    </text>
<text text-anchor="start" x="1294.6368" y="-1063.9" font-family="Arial" font-size="14.00" fill="#666666">[bigint]</text>
<polygon fill="none" stroke="#000000" points="1157,-1022.5 1157,-1052.5 1531,-1052.5 1531,-1022.5 1157,-1022.5"/>
<text text-anchor="start" x="1164" y="-1033.9" font-family="Arial" font-size="14.00" fill="#000000">FILTER_COUNT    </text>
<text text-anchor="start" x="1303.972" y="-1033.9" font-family="Arial" font-size="14.00" fill="#666666">[bigint]</text>
<polygon fill="none" stroke="#000000" points="1157,-992.5 1157,-1022.5 1531,-1022.5 1531,-992.5 1157,-992.5"/>
<text text-anchor="start" x="1164" y="-1003.9" font-family="Arial" font-size="14.00" fill="#000000">WRITE_COUNT    </text>
<text text-anchor="start" x="1300.8514" y="-1003.9" font-family="Arial" font-size="14.00" fill="#666666">[bigint]</text>
<polygon fill="none" stroke="#000000" points="1157,-962.5 1157,-992.5 1531,-992.5 1531,-962.5 1157,-962.5"/>
<text text-anchor="start" x="1164" y="-973.9" font-family="Arial" font-size="14.00" fill="#000000">READ_SKIP_COUNT    </text>
<text text-anchor="start" x="1334.3198" y="-973.9" font-family="Arial" font-size="14.00" fill="#666666">[bigint]</text>
<polygon fill="none" stroke="#000000" points="1157,-932.5 1157,-962.5 1531,-962.5 1531,-932.5 1157,-932.5"/>
<text text-anchor="start" x="1164" y="-943.9" font-family="Arial" font-size="14.00" fill="#000000">WRITE_SKIP_COUNT    </text>
<text text-anchor="start" x="1340.5344" y="-943.9" font-family="Arial" font-size="14.00" fill="#666666">[bigint]</text>
<polygon fill="none" stroke="#000000" points="1157,-902.5 1157,-932.5 1531,-932.5 1531,-902.5 1157,-902.5"/>
<text text-anchor="start" x="1164" y="-913.9" font-family="Arial" font-size="14.00" fill="#000000">PROCESS_SKIP_COUNT    </text>
<text text-anchor="start" x="1363.8836" y="-913.9" font-family="Arial" font-size="14.00" fill="#666666">[bigint]</text>
<polygon fill="none" stroke="#000000" points="1157,-872.5 1157,-902.5 1531,-902.5 1531,-872.5 1157,-872.5"/>
<text text-anchor="start" x="1164" y="-883.9" font-family="Arial" font-size="14.00" fill="#000000">ROLLBACK_COUNT    </text>
<text text-anchor="start" x="1330.4292" y="-883.9" font-family="Arial" font-size="14.00" fill="#666666">[bigint]</text>
<polygon fill="none" stroke="#000000" points="1157,-842.5 1157,-872.5 1531,-872.5 1531,-842.5 1157,-842.5"/>
<text text-anchor="start" x="1164" y="-853.9" font-family="Arial" font-size="14.00" fill="#000000">EXIT_CODE    </text>
<text text-anchor="start" x="1277.5442" y="-853.9" font-family="Arial" font-size="14.00" fill="#666666">[varchar(2500)]</text>
<polygon fill="none" stroke="#000000" points="1157,-812.5 1157,-842.5 1531,-842.5 1531,-812.5 1157,-812.5"/>
<text text-anchor="start" x="1164" y="-823.9" font-family="Arial" font-size="14.00" fill="#000000">EXIT_MESSAGE    </text>
<text text-anchor="start" x="1306.338" y="-823.9" font-family="Arial" font-size="14.00" fill="#666666">[varchar(2500)]</text>
<polygon fill="none" stroke="#000000" points="1157,-782.5 1157,-812.5 1531,-812.5 1531,-782.5 1157,-782.5"/>
<text text-anchor="start" x="1164" y="-793.9" font-family="Arial" font-size="14.00" fill="#000000">LAST_UPDATED    </text>
<text text-anchor="start" x="1307.878" y="-793.9" font-family="Arial" font-size="14.00" fill="#666666">[datetime(6)]</text>
</g>
<!-- BATCH_STEP_EXECUTION&#45;&gt;BATCH_JOB_EXECUTION -->
<g id="edge3" class="edge">
<title>BATCH_STEP_EXECUTION:JOB_EXECUTION_ID&#45;&gt;BATCH_JOB_EXECUTION:JOB_EXECUTION_ID</title>
<path fill="none" stroke="#000000" d="M1147.8495,-1242.9911C1103.0638,-1195.6177 1123.9016,-789.9031 1105,-740 1079.3335,-672.2368 1082.4611,-607.5 1010,-607.5"/>
<polygon fill="#000000" stroke="#000000" points="1148.0299,-1243.0799 1155.011,-1251.5366 1152.5149,-1245.29 1157,-1247.5 1157,-1247.5 1157,-1247.5 1152.5149,-1245.29 1158.989,-1243.4634 1148.0299,-1243.0799 1148.0299,-1243.0799"/>
<text text-anchor="start" x="669.1635" y="-1257.5" font-family="Arial" font-size="10.00" fill="#000000">FOREIGN KEY (JOB_EXECUTION_ID) REFERENCES BATCH_JOB_EXECUTION (JOB_EXECUTION_ID)</text>
</g>
</g>
</svg>
