<?xml version="1.0" encoding="UTF-8" standalone="no"?>
<!DOCTYPE svg PUBLIC "-//W3C//DTD SVG 1.1//EN"
 "http://www.w3.org/Graphics/SVG/1.1/DTD/svg11.dtd">
<!-- Generated by graphviz version 2.40.1 (20161225.0304)
 -->
<!-- Title: BATCH_JOB_EXECUTION_PARAMS Pages: 1 -->
<svg width="997pt" height="742pt"
 viewBox="0.00 0.00 997.00 742.00" xmlns="http://www.w3.org/2000/svg" xmlns:xlink="http://www.w3.org/1999/xlink">
<g id="graph0" class="graph" transform="scale(1 1) rotate(0) translate(4 738)">
<title>BATCH_JOB_EXECUTION_PARAMS</title>
<polygon fill="#ffffff" stroke="transparent" points="-4,4 -4,-738 993,-738 993,4 -4,4"/>
<!-- BATCH_JOB_EXECUTION_PARAMS -->
<g id="node1" class="node">
<title>BATCH_JOB_EXECUTION_PARAMS</title>
<polygon fill="#efefef" stroke="transparent" points="46,-652.5 46,-687.5 494,-687.5 494,-652.5 46,-652.5"/>
<polygon fill="none" stroke="#000000" points="46,-652.5 46,-687.5 494,-687.5 494,-652.5 46,-652.5"/>
<text text-anchor="start" x="52.7075" y="-665.3" font-family="Arial Bold" font-size="18.00" fill="#000000">BATCH_JOB_EXECUTION_PARAMS</text>
<text text-anchor="start" x="359.7245" y="-665.3" font-family="Arial" font-size="14.00" fill="#000000">    </text>
<text text-anchor="start" x="393.9293" y="-665.3" font-family="Arial" font-size="14.00" fill="#666666">[BASE TABLE]</text>
<polygon fill="none" stroke="#000000" points="46,-622.5 46,-652.5 494,-652.5 494,-622.5 46,-622.5"/>
<text text-anchor="start" x="53" y="-633.9" font-family="Arial" font-size="14.00" fill="#000000">JOB_EXECUTION_ID </text>
<text text-anchor="start" x="195.3436" y="-633.9" font-family="Arial" font-size="14.00" fill="#666666">[bigint]</text>
<polygon fill="none" stroke="#000000" points="46,-592.5 46,-622.5 494,-622.5 494,-592.5 46,-592.5"/>
<text text-anchor="start" x="53" y="-603.9" font-family="Arial" font-size="14.00" fill="#000000">PARAMETER_NAME </text>
<text text-anchor="start" x="192.223" y="-603.9" font-family="Arial" font-size="14.00" fill="#666666">[varchar(100)]</text>
<polygon fill="none" stroke="#000000" points="46,-562.5 46,-592.5 494,-592.5 494,-562.5 46,-562.5"/>
<text text-anchor="start" x="53" y="-573.9" font-family="Arial" font-size="14.00" fill="#000000">PARAMETER_TYPE </text>
<text text-anchor="start" x="188.345" y="-573.9" font-family="Arial" font-size="14.00" fill="#666666">[varchar(100)]</text>
<polygon fill="none" stroke="#000000" points="46,-532.5 46,-562.5 494,-562.5 494,-532.5 46,-532.5"/>
<text text-anchor="start" x="53" y="-543.9" font-family="Arial" font-size="14.00" fill="#000000">PARAMETER_VALUE </text>
<text text-anchor="start" x="197.6816" y="-543.9" font-family="Arial" font-size="14.00" fill="#666666">[varchar(2500)]</text>
<polygon fill="none" stroke="#000000" points="46,-502.5 46,-532.5 494,-532.5 494,-502.5 46,-502.5"/>
<text text-anchor="start" x="53" y="-513.9" font-family="Arial" font-size="14.00" fill="#000000">IDENTIFYING </text>
<text text-anchor="start" x="145.5512" y="-513.9" font-family="Arial" font-size="14.00" fill="#666666">[char(1)]</text>
<polygon fill="none" stroke="#000000" stroke-width="3" points="44.5,-501.5 44.5,-689.5 495.5,-689.5 495.5,-501.5 44.5,-501.5"/>
</g>
<!-- BATCH_JOB_EXECUTION -->
<g id="node2" class="node">
<title>BATCH_JOB_EXECUTION</title>
<polygon fill="#efefef" stroke="transparent" points="89,-342.5 89,-377.5 451,-377.5 451,-342.5 89,-342.5"/>
<polygon fill="none" stroke="#000000" points="89,-342.5 89,-377.5 451,-377.5 451,-342.5 89,-342.5"/>
<text text-anchor="start" x="95.7122" y="-355.3" font-family="Arial Bold" font-size="18.00" fill="#000000">BATCH_JOB_EXECUTION</text>
<text text-anchor="start" x="316.7198" y="-355.3" font-family="Arial" font-size="14.00" fill="#000000">    </text>
<text text-anchor="start" x="350.9246" y="-355.3" font-family="Arial" font-size="14.00" fill="#666666">[BASE TABLE]</text>
<polygon fill="none" stroke="#000000" points="89,-312.5 89,-342.5 451,-342.5 451,-312.5 89,-312.5"/>
<text text-anchor="start" x="96" y="-323.9" font-family="Arial" font-size="14.00" fill="#000000">JOB_EXECUTION_ID    </text>
<text text-anchor="start" x="268.6578" y="-323.9" font-family="Arial" font-size="14.00" fill="#666666">[bigint]</text>
<polygon fill="none" stroke="#000000" points="89,-282.5 89,-312.5 451,-312.5 451,-282.5 89,-282.5"/>
<text text-anchor="start" x="96" y="-293.9" font-family="Arial" font-size="14.00" fill="#000000">VERSION    </text>
<text text-anchor="start" x="193.209" y="-293.9" font-family="Arial" font-size="14.00" fill="#666666">[bigint]</text>
<polygon fill="none" stroke="#000000" points="89,-252.5 89,-282.5 451,-282.5 451,-252.5 89,-252.5"/>
<text text-anchor="start" x="96" y="-263.9" font-family="Arial" font-size="14.00" fill="#000000">JOB_INSTANCE_ID    </text>
<text text-anchor="start" x="257.7672" y="-263.9" font-family="Arial" font-size="14.00" fill="#666666">[bigint]</text>
<polygon fill="none" stroke="#000000" points="89,-222.5 89,-252.5 451,-252.5 451,-222.5 89,-222.5"/>
<text text-anchor="start" x="96" y="-233.9" font-family="Arial" font-size="14.00" fill="#000000">CREATE_TIME    </text>
<text text-anchor="start" x="228.2034" y="-233.9" font-family="Arial" font-size="14.00" fill="#666666">[datetime(6)]</text>
<polygon fill="none" stroke="#000000" points="89,-192.5 89,-222.5 451,-222.5 451,-192.5 89,-192.5"/>
<text text-anchor="start" x="96" y="-203.9" font-family="Arial" font-size="14.00" fill="#000000">START_TIME    </text>
<text text-anchor="start" x="217.3128" y="-203.9" font-family="Arial" font-size="14.00" fill="#666666">[datetime(6)]</text>
<polygon fill="none" stroke="#000000" points="89,-162.5 89,-192.5 451,-192.5 451,-162.5 89,-162.5"/>
<text text-anchor="start" x="96" y="-173.9" font-family="Arial" font-size="14.00" fill="#000000">END_TIME    </text>
<text text-anchor="start" x="200.9776" y="-173.9" font-family="Arial" font-size="14.00" fill="#666666">[datetime(6)]</text>
<polygon fill="none" stroke="#000000" points="89,-132.5 89,-162.5 451,-162.5 451,-132.5 89,-132.5"/>
<text text-anchor="start" x="96" y="-143.9" font-family="Arial" font-size="14.00" fill="#000000">STATUS    </text>
<text text-anchor="start" x="185.4264" y="-143.9" font-family="Arial" font-size="14.00" fill="#666666">[varchar(10)]</text>
<polygon fill="none" stroke="#000000" points="89,-102.5 89,-132.5 451,-132.5 451,-102.5 89,-102.5"/>
<text text-anchor="start" x="96" y="-113.9" font-family="Arial" font-size="14.00" fill="#000000">EXIT_CODE    </text>
<text text-anchor="start" x="209.5442" y="-113.9" font-family="Arial" font-size="14.00" fill="#666666">[varchar(2500)]</text>
<polygon fill="none" stroke="#000000" points="89,-72.5 89,-102.5 451,-102.5 451,-72.5 89,-72.5"/>
<text text-anchor="start" x="96" y="-83.9" font-family="Arial" font-size="14.00" fill="#000000">EXIT_MESSAGE    </text>
<text text-anchor="start" x="238.338" y="-83.9" font-family="Arial" font-size="14.00" fill="#666666">[varchar(2500)]</text>
<polygon fill="none" stroke="#000000" points="89,-42.5 89,-72.5 451,-72.5 451,-42.5 89,-42.5"/>
<text text-anchor="start" x="96" y="-53.9" font-family="Arial" font-size="14.00" fill="#000000">LAST_UPDATED    </text>
<text text-anchor="start" x="239.878" y="-53.9" font-family="Arial" font-size="14.00" fill="#666666">[datetime(6)]</text>
</g>
<!-- BATCH_JOB_EXECUTION_PARAMS&#45;&gt;BATCH_JOB_EXECUTION -->
<g id="edge1" class="edge">
<title>BATCH_JOB_EXECUTION_PARAMS:JOB_EXECUTION_ID&#45;&gt;BATCH_JOB_EXECUTION:JOB_EXECUTION_ID</title>
<path fill="none" stroke="#000000" d="M503.7358,-635.183C559.1128,-606.815 517.0167,-327.5 451,-327.5"/>
<polygon fill="#000000" stroke="#000000" points="503.7283,-635.1847 492.9581,-633.1223 498.8641,-636.3423 494,-637.5 494,-637.5 494,-637.5 498.8641,-636.3423 495.0419,-641.8777 503.7283,-635.1847 503.7283,-635.1847"/>
<text text-anchor="start" x="501.1635" y="-647.5" font-family="Arial" font-size="10.00" fill="#000000">FOREIGN KEY (JOB_EXECUTION_ID) REFERENCES BATCH_JOB_EXECUTION (JOB_EXECUTION_ID)</text>
</g>
</g>
</svg>
