<?xml version="1.0" encoding="UTF-8" standalone="no"?>
<!DOCTYPE svg PUBLIC "-//W3C//DTD SVG 1.1//EN"
 "http://www.w3.org/Graphics/SVG/1.1/DTD/svg11.dtd">
<!-- Generated by graphviz version 2.40.1 (20161225.0304)
 -->
<!-- Title: BATCH_STEP_EXECUTION Pages: 1 -->
<svg width="1036pt" height="1409pt"
 viewBox="0.00 0.00 1036.00 1409.00" xmlns="http://www.w3.org/2000/svg" xmlns:xlink="http://www.w3.org/1999/xlink">
<g id="graph0" class="graph" transform="scale(1 1) rotate(0) translate(4 1405)">
<title>BATCH_STEP_EXECUTION</title>
<polygon fill="#ffffff" stroke="transparent" points="-4,4 -4,-1405 1032,-1405 1032,4 -4,4"/>
<!-- BATCH_STEP_EXECUTION -->
<g id="node1" class="node">
<title>BATCH_STEP_EXECUTION</title>
<polygon fill="#efefef" stroke="transparent" points="91,-1072.5 91,-1107.5 465,-1107.5 465,-1072.5 91,-1072.5"/>
<polygon fill="none" stroke="#000000" points="91,-1072.5 91,-1107.5 465,-1107.5 465,-1072.5 91,-1072.5"/>
<text text-anchor="start" x="97.711" y="-1085.3" font-family="Arial Bold" font-size="18.00" fill="#000000">BATCH_STEP_EXECUTION</text>
<text text-anchor="start" x="330.721" y="-1085.3" font-family="Arial" font-size="14.00" fill="#000000">    </text>
<text text-anchor="start" x="364.9258" y="-1085.3" font-family="Arial" font-size="14.00" fill="#666666">[BASE TABLE]</text>
<polygon fill="none" stroke="#000000" points="91,-1042.5 91,-1072.5 465,-1072.5 465,-1042.5 91,-1042.5"/>
<text text-anchor="start" x="98" y="-1053.9" font-family="Arial" font-size="14.00" fill="#000000">STEP_EXECUTION_ID </text>
<text text-anchor="start" x="249.6788" y="-1053.9" font-family="Arial" font-size="14.00" fill="#666666">[bigint]</text>
<polygon fill="none" stroke="#000000" points="91,-1012.5 91,-1042.5 465,-1042.5 465,-1012.5 91,-1012.5"/>
<text text-anchor="start" x="98" y="-1023.9" font-family="Arial" font-size="14.00" fill="#000000">VERSION </text>
<text text-anchor="start" x="164.8948" y="-1023.9" font-family="Arial" font-size="14.00" fill="#666666">[bigint]</text>
<polygon fill="none" stroke="#000000" points="91,-982.5 91,-1012.5 465,-1012.5 465,-982.5 91,-982.5"/>
<text text-anchor="start" x="98" y="-993.9" font-family="Arial" font-size="14.00" fill="#000000">STEP_NAME </text>
<text text-anchor="start" x="186.676" y="-993.9" font-family="Arial" font-size="14.00" fill="#666666">[varchar(100)]</text>
<polygon fill="none" stroke="#000000" points="91,-952.5 91,-982.5 465,-982.5 465,-952.5 91,-952.5"/>
<text text-anchor="start" x="98" y="-963.9" font-family="Arial" font-size="14.00" fill="#000000">JOB_EXECUTION_ID </text>
<text text-anchor="start" x="240.3436" y="-963.9" font-family="Arial" font-size="14.00" fill="#666666">[bigint]</text>
<polygon fill="none" stroke="#000000" points="91,-922.5 91,-952.5 465,-952.5 465,-922.5 91,-922.5"/>
<text text-anchor="start" x="98" y="-933.9" font-family="Arial" font-size="14.00" fill="#000000">CREATE_TIME </text>
<text text-anchor="start" x="199.8892" y="-933.9" font-family="Arial" font-size="14.00" fill="#666666">[datetime(6)]</text>
<polygon fill="none" stroke="#000000" points="91,-892.5 91,-922.5 465,-922.5 465,-892.5 91,-892.5"/>
<text text-anchor="start" x="98" y="-903.9" font-family="Arial" font-size="14.00" fill="#000000">START_TIME </text>
<text text-anchor="start" x="188.9986" y="-903.9" font-family="Arial" font-size="14.00" fill="#666666">[datetime(6)]</text>
<polygon fill="none" stroke="#000000" points="91,-862.5 91,-892.5 465,-892.5 465,-862.5 91,-862.5"/>
<text text-anchor="start" x="98" y="-873.9" font-family="Arial" font-size="14.00" fill="#000000">END_TIME </text>
<text text-anchor="start" x="172.6634" y="-873.9" font-family="Arial" font-size="14.00" fill="#666666">[datetime(6)]</text>
<polygon fill="none" stroke="#000000" points="91,-832.5 91,-862.5 465,-862.5 465,-832.5 91,-832.5"/>
<text text-anchor="start" x="98" y="-843.9" font-family="Arial" font-size="14.00" fill="#000000">STATUS </text>
<text text-anchor="start" x="157.1122" y="-843.9" font-family="Arial" font-size="14.00" fill="#666666">[varchar(10)]</text>
<polygon fill="none" stroke="#000000" points="91,-802.5 91,-832.5 465,-832.5 465,-802.5 91,-802.5"/>
<text text-anchor="start" x="98" y="-813.9" font-family="Arial" font-size="14.00" fill="#000000">COMMIT_COUNT </text>
<text text-anchor="start" x="216.1978" y="-813.9" font-family="Arial" font-size="14.00" fill="#666666">[bigint]</text>
<polygon fill="none" stroke="#000000" points="91,-772.5 91,-802.5 465,-802.5 465,-772.5 91,-772.5"/>
<text text-anchor="start" x="98" y="-783.9" font-family="Arial" font-size="14.00" fill="#000000">READ_COUNT </text>
<text text-anchor="start" x="198.3226" y="-783.9" font-family="Arial" font-size="14.00" fill="#666666">[bigint]</text>
<polygon fill="none" stroke="#000000" points="91,-742.5 91,-772.5 465,-772.5 465,-742.5 91,-742.5"/>
<text text-anchor="start" x="98" y="-753.9" font-family="Arial" font-size="14.00" fill="#000000">FILTER_COUNT </text>
<text text-anchor="start" x="207.6578" y="-753.9" font-family="Arial" font-size="14.00" fill="#666666">[bigint]</text>
<polygon fill="none" stroke="#000000" points="91,-712.5 91,-742.5 465,-742.5 465,-712.5 91,-712.5"/>
<text text-anchor="start" x="98" y="-723.9" font-family="Arial" font-size="14.00" fill="#000000">WRITE_COUNT </text>
<text text-anchor="start" x="204.5372" y="-723.9" font-family="Arial" font-size="14.00" fill="#666666">[bigint]</text>
<polygon fill="none" stroke="#000000" points="91,-682.5 91,-712.5 465,-712.5 465,-682.5 91,-682.5"/>
<text text-anchor="start" x="98" y="-693.9" font-family="Arial" font-size="14.00" fill="#000000">READ_SKIP_COUNT </text>
<text text-anchor="start" x="238.0056" y="-693.9" font-family="Arial" font-size="14.00" fill="#666666">[bigint]</text>
<polygon fill="none" stroke="#000000" points="91,-652.5 91,-682.5 465,-682.5 465,-652.5 91,-652.5"/>
<text text-anchor="start" x="98" y="-663.9" font-family="Arial" font-size="14.00" fill="#000000">WRITE_SKIP_COUNT </text>
<text text-anchor="start" x="244.2202" y="-663.9" font-family="Arial" font-size="14.00" fill="#666666">[bigint]</text>
<polygon fill="none" stroke="#000000" points="91,-622.5 91,-652.5 465,-652.5 465,-622.5 91,-622.5"/>
<text text-anchor="start" x="98" y="-633.9" font-family="Arial" font-size="14.00" fill="#000000">PROCESS_SKIP_COUNT </text>
<text text-anchor="start" x="267.5694" y="-633.9" font-family="Arial" font-size="14.00" fill="#666666">[bigint]</text>
<polygon fill="none" stroke="#000000" points="91,-592.5 91,-622.5 465,-622.5 465,-592.5 91,-592.5"/>
<text text-anchor="start" x="98" y="-603.9" font-family="Arial" font-size="14.00" fill="#000000">ROLLBACK_COUNT </text>
<text text-anchor="start" x="234.115" y="-603.9" font-family="Arial" font-size="14.00" fill="#666666">[bigint]</text>
<polygon fill="none" stroke="#000000" points="91,-562.5 91,-592.5 465,-592.5 465,-562.5 91,-562.5"/>
<text text-anchor="start" x="98" y="-573.9" font-family="Arial" font-size="14.00" fill="#000000">EXIT_CODE </text>
<text text-anchor="start" x="181.23" y="-573.9" font-family="Arial" font-size="14.00" fill="#666666">[varchar(2500)]</text>
<polygon fill="none" stroke="#000000" points="91,-532.5 91,-562.5 465,-562.5 465,-532.5 91,-532.5"/>
<text text-anchor="start" x="98" y="-543.9" font-family="Arial" font-size="14.00" fill="#000000">EXIT_MESSAGE </text>
<text text-anchor="start" x="210.0238" y="-543.9" font-family="Arial" font-size="14.00" fill="#666666">[varchar(2500)]</text>
<polygon fill="none" stroke="#000000" points="91,-502.5 91,-532.5 465,-532.5 465,-502.5 91,-502.5"/>
<text text-anchor="start" x="98" y="-513.9" font-family="Arial" font-size="14.00" fill="#000000">LAST_UPDATED </text>
<text text-anchor="start" x="211.5638" y="-513.9" font-family="Arial" font-size="14.00" fill="#666666">[datetime(6)]</text>
<polygon fill="none" stroke="#000000" stroke-width="3" points="89.5,-501.5 89.5,-1109.5 466.5,-1109.5 466.5,-501.5 89.5,-501.5"/>
</g>
<!-- BATCH_JOB_EXECUTION -->
<g id="node3" class="node">
<title>BATCH_JOB_EXECUTION</title>
<polygon fill="#efefef" stroke="transparent" points="97,-342.5 97,-377.5 459,-377.5 459,-342.5 97,-342.5"/>
<polygon fill="none" stroke="#000000" points="97,-342.5 97,-377.5 459,-377.5 459,-342.5 97,-342.5"/>
<text text-anchor="start" x="103.7122" y="-355.3" font-family="Arial Bold" font-size="18.00" fill="#000000">BATCH_JOB_EXECUTION</text>
<text text-anchor="start" x="324.7198" y="-355.3" font-family="Arial" font-size="14.00" fill="#000000">    </text>
<text text-anchor="start" x="358.9246" y="-355.3" font-family="Arial" font-size="14.00" fill="#666666">[BASE TABLE]</text>
<polygon fill="none" stroke="#000000" points="97,-312.5 97,-342.5 459,-342.5 459,-312.5 97,-312.5"/>
<text text-anchor="start" x="104" y="-323.9" font-family="Arial" font-size="14.00" fill="#000000">JOB_EXECUTION_ID    </text>
<text text-anchor="start" x="276.6578" y="-323.9" font-family="Arial" font-size="14.00" fill="#666666">[bigint]</text>
<polygon fill="none" stroke="#000000" points="97,-282.5 97,-312.5 459,-312.5 459,-282.5 97,-282.5"/>
<text text-anchor="start" x="104" y="-293.9" font-family="Arial" font-size="14.00" fill="#000000">VERSION    </text>
<text text-anchor="start" x="201.209" y="-293.9" font-family="Arial" font-size="14.00" fill="#666666">[bigint]</text>
<polygon fill="none" stroke="#000000" points="97,-252.5 97,-282.5 459,-282.5 459,-252.5 97,-252.5"/>
<text text-anchor="start" x="104" y="-263.9" font-family="Arial" font-size="14.00" fill="#000000">JOB_INSTANCE_ID    </text>
<text text-anchor="start" x="265.7672" y="-263.9" font-family="Arial" font-size="14.00" fill="#666666">[bigint]</text>
<polygon fill="none" stroke="#000000" points="97,-222.5 97,-252.5 459,-252.5 459,-222.5 97,-222.5"/>
<text text-anchor="start" x="104" y="-233.9" font-family="Arial" font-size="14.00" fill="#000000">CREATE_TIME    </text>
<text text-anchor="start" x="236.2034" y="-233.9" font-family="Arial" font-size="14.00" fill="#666666">[datetime(6)]</text>
<polygon fill="none" stroke="#000000" points="97,-192.5 97,-222.5 459,-222.5 459,-192.5 97,-192.5"/>
<text text-anchor="start" x="104" y="-203.9" font-family="Arial" font-size="14.00" fill="#000000">START_TIME    </text>
<text text-anchor="start" x="225.3128" y="-203.9" font-family="Arial" font-size="14.00" fill="#666666">[datetime(6)]</text>
<polygon fill="none" stroke="#000000" points="97,-162.5 97,-192.5 459,-192.5 459,-162.5 97,-162.5"/>
<text text-anchor="start" x="104" y="-173.9" font-family="Arial" font-size="14.00" fill="#000000">END_TIME    </text>
<text text-anchor="start" x="208.9776" y="-173.9" font-family="Arial" font-size="14.00" fill="#666666">[datetime(6)]</text>
<polygon fill="none" stroke="#000000" points="97,-132.5 97,-162.5 459,-162.5 459,-132.5 97,-132.5"/>
<text text-anchor="start" x="104" y="-143.9" font-family="Arial" font-size="14.00" fill="#000000">STATUS    </text>
<text text-anchor="start" x="193.4264" y="-143.9" font-family="Arial" font-size="14.00" fill="#666666">[varchar(10)]</text>
<polygon fill="none" stroke="#000000" points="97,-102.5 97,-132.5 459,-132.5 459,-102.5 97,-102.5"/>
<text text-anchor="start" x="104" y="-113.9" font-family="Arial" font-size="14.00" fill="#000000">EXIT_CODE    </text>
<text text-anchor="start" x="217.5442" y="-113.9" font-family="Arial" font-size="14.00" fill="#666666">[varchar(2500)]</text>
<polygon fill="none" stroke="#000000" points="97,-72.5 97,-102.5 459,-102.5 459,-72.5 97,-72.5"/>
<text text-anchor="start" x="104" y="-83.9" font-family="Arial" font-size="14.00" fill="#000000">EXIT_MESSAGE    </text>
<text text-anchor="start" x="246.338" y="-83.9" font-family="Arial" font-size="14.00" fill="#666666">[varchar(2500)]</text>
<polygon fill="none" stroke="#000000" points="97,-42.5 97,-72.5 459,-72.5 459,-42.5 97,-42.5"/>
<text text-anchor="start" x="104" y="-53.9" font-family="Arial" font-size="14.00" fill="#000000">LAST_UPDATED    </text>
<text text-anchor="start" x="247.878" y="-53.9" font-family="Arial" font-size="14.00" fill="#666666">[datetime(6)]</text>
</g>
<!-- BATCH_STEP_EXECUTION&#45;&gt;BATCH_JOB_EXECUTION -->
<g id="edge2" class="edge">
<title>BATCH_STEP_EXECUTION:JOB_EXECUTION_ID&#45;&gt;BATCH_JOB_EXECUTION:JOB_EXECUTION_ID</title>
<path fill="none" stroke="#000000" d="M475.1522,-966.3742C606.8543,-936.6315 597.7561,-327.5 459,-327.5"/>
<polygon fill="#000000" stroke="#000000" points="474.9391,-966.3978 464.504,-963.0274 469.9695,-966.9489 465,-967.5 465,-967.5 465,-967.5 469.9695,-966.9489 465.496,-971.9726 474.9391,-966.3978 474.9391,-966.3978"/>
<text text-anchor="start" x="472.1635" y="-977.5" font-family="Arial" font-size="10.00" fill="#000000">FOREIGN KEY (JOB_EXECUTION_ID) REFERENCES BATCH_JOB_EXECUTION (JOB_EXECUTION_ID)</text>
</g>
<!-- BATCH_STEP_EXECUTION_CONTEXT -->
<g id="node2" class="node">
<title>BATCH_STEP_EXECUTION_CONTEXT</title>
<polygon fill="#efefef" stroke="transparent" points="43,-1322.5 43,-1357.5 513,-1357.5 513,-1322.5 43,-1322.5"/>
<polygon fill="none" stroke="#000000" points="43,-1322.5 43,-1357.5 513,-1357.5 513,-1322.5 43,-1322.5"/>
<text text-anchor="start" x="49.7122" y="-1335.3" font-family="Arial Bold" font-size="18.00" fill="#000000">BATCH_STEP_EXECUTION_CONTEXT</text>
<text text-anchor="start" x="378.7198" y="-1335.3" font-family="Arial" font-size="14.00" fill="#000000">    </text>
<text text-anchor="start" x="412.9246" y="-1335.3" font-family="Arial" font-size="14.00" fill="#666666">[BASE TABLE]</text>
<polygon fill="none" stroke="#000000" points="43,-1292.5 43,-1322.5 513,-1322.5 513,-1292.5 43,-1292.5"/>
<text text-anchor="start" x="50" y="-1303.9" font-family="Arial" font-size="14.00" fill="#000000">STEP_EXECUTION_ID    </text>
<text text-anchor="start" x="231.993" y="-1303.9" font-family="Arial" font-size="14.00" fill="#666666">[bigint]</text>
<polygon fill="none" stroke="#000000" points="43,-1262.5 43,-1292.5 513,-1292.5 513,-1262.5 43,-1262.5"/>
<text text-anchor="start" x="50" y="-1273.9" font-family="Arial" font-size="14.00" fill="#000000">SHORT_CONTEXT    </text>
<text text-anchor="start" x="207.8626" y="-1273.9" font-family="Arial" font-size="14.00" fill="#666666">[varchar(2500)]</text>
<polygon fill="none" stroke="#000000" points="43,-1232.5 43,-1262.5 513,-1262.5 513,-1232.5 43,-1232.5"/>
<text text-anchor="start" x="50" y="-1243.9" font-family="Arial" font-size="14.00" fill="#000000">SERIALIZED_CONTEXT    </text>
<text text-anchor="start" x="240.5456" y="-1243.9" font-family="Arial" font-size="14.00" fill="#666666">[text]</text>
</g>
<!-- BATCH_STEP_EXECUTION_CONTEXT&#45;&gt;BATCH_STEP_EXECUTION -->
<g id="edge1" class="edge">
<title>BATCH_STEP_EXECUTION_CONTEXT:STEP_EXECUTION_ID&#45;&gt;BATCH_STEP_EXECUTION:STEP_EXECUTION_ID</title>
<path fill="none" stroke="#000000" d="M523.1378,-1306.7828C623.077,-1292.1191 574.6049,-1057.5 465,-1057.5"/>
<polygon fill="#000000" stroke="#000000" points="522.9751,-1306.7943 512.6824,-1303.0112 517.9875,-1307.1471 513,-1307.5 513,-1307.5 513,-1307.5 517.9875,-1307.1471 513.3176,-1311.9888 522.9751,-1306.7943 522.9751,-1306.7943"/>
<text text-anchor="start" x="520.1615" y="-1317.5" font-family="Arial" font-size="10.00" fill="#000000">FOREIGN KEY (STEP_EXECUTION_ID) REFERENCES BATCH_STEP_EXECUTION (STEP_EXECUTION_ID)</text>
</g>
</g>
</svg>
