<?xml version="1.0" encoding="UTF-8" standalone="no"?>
<!DOCTYPE svg PUBLIC "-//W3C//DTD SVG 1.1//EN"
 "http://www.w3.org/Graphics/SVG/1.1/DTD/svg11.dtd">
<!-- Generated by graphviz version 2.40.1 (20161225.0304)
 -->
<!-- Title: BATCH_STEP_EXECUTION_SEQ Pages: 1 -->
<svg width="522pt" height="195pt"
 viewBox="0.00 0.00 522.00 195.00" xmlns="http://www.w3.org/2000/svg" xmlns:xlink="http://www.w3.org/1999/xlink">
<g id="graph0" class="graph" transform="scale(1 1) rotate(0) translate(4 191)">
<title>BATCH_STEP_EXECUTION_SEQ</title>
<polygon fill="#ffffff" stroke="transparent" points="-4,4 -4,-191 518,-191 518,4 -4,4"/>
<!-- BATCH_STEP_EXECUTION_SEQ -->
<g id="node1" class="node">
<title>BATCH_STEP_EXECUTION_SEQ</title>
<polygon fill="#efefef" stroke="transparent" points="46,-105.5 46,-140.5 468,-140.5 468,-105.5 46,-105.5"/>
<polygon fill="none" stroke="#000000" points="46,-105.5 46,-140.5 468,-140.5 468,-105.5 46,-105.5"/>
<text text-anchor="start" x="52.7026" y="-118.3" font-family="Arial Bold" font-size="18.00" fill="#000000">BATCH_STEP_EXECUTION_SEQ</text>
<text text-anchor="start" x="333.7294" y="-118.3" font-family="Arial" font-size="14.00" fill="#000000">    </text>
<text text-anchor="start" x="367.9342" y="-118.3" font-family="Arial" font-size="14.00" fill="#666666">[BASE TABLE]</text>
<polygon fill="none" stroke="#000000" points="46,-75.5 46,-105.5 468,-105.5 468,-75.5 46,-75.5"/>
<text text-anchor="start" x="53" y="-86.9" font-family="Arial" font-size="14.00" fill="#000000">ID </text>
<text text-anchor="start" x="70.8878" y="-86.9" font-family="Arial" font-size="14.00" fill="#666666">[bigint]</text>
<polygon fill="none" stroke="#000000" points="46,-45.5 46,-75.5 468,-75.5 468,-45.5 46,-45.5"/>
<text text-anchor="start" x="53" y="-56.9" font-family="Arial" font-size="14.00" fill="#000000">UNIQUE_KEY </text>
<text text-anchor="start" x="147.1206" y="-56.9" font-family="Arial" font-size="14.00" fill="#666666">[char(1)]</text>
<polygon fill="none" stroke="#000000" stroke-width="3" points="44.5,-44.5 44.5,-142.5 469.5,-142.5 469.5,-44.5 44.5,-44.5"/>
</g>
</g>
</svg>
