<?xml version="1.0" encoding="UTF-8" standalone="no"?>
<!DOCTYPE svg PUBLIC "-//W3C//DTD SVG 1.1//EN"
 "http://www.w3.org/Graphics/SVG/1.1/DTD/svg11.dtd">
<!-- Generated by graphviz version 2.40.1 (20161225.0304)
 -->
<!-- Title: BATCH_JOB_INSTANCE Pages: 1 -->
<svg width="885pt" height="712pt"
 viewBox="0.00 0.00 885.00 712.00" xmlns="http://www.w3.org/2000/svg" xmlns:xlink="http://www.w3.org/1999/xlink">
<g id="graph0" class="graph" transform="scale(1 1) rotate(0) translate(4 708)">
<title>BATCH_JOB_INSTANCE</title>
<polygon fill="#ffffff" stroke="transparent" points="-4,4 -4,-708 881,-708 881,4 -4,4"/>
<!-- BATCH_JOB_INSTANCE -->
<g id="node1" class="node">
<title>BATCH_JOB_INSTANCE</title>
<polygon fill="#efefef" stroke="transparent" points="50,-165.5 50,-200.5 398,-200.5 398,-165.5 50,-165.5"/>
<polygon fill="none" stroke="#000000" points="50,-165.5 50,-200.5 398,-200.5 398,-165.5 50,-165.5"/>
<text text-anchor="start" x="56.7133" y="-178.3" font-family="Arial Bold" font-size="18.00" fill="#000000">BATCH_JOB_INSTANCE</text>
<text text-anchor="start" x="263.7187" y="-178.3" font-family="Arial" font-size="14.00" fill="#000000">    </text>
<text text-anchor="start" x="297.9235" y="-178.3" font-family="Arial" font-size="14.00" fill="#666666">[BASE TABLE]</text>
<polygon fill="none" stroke="#000000" points="50,-135.5 50,-165.5 398,-165.5 398,-135.5 50,-135.5"/>
<text text-anchor="start" x="57" y="-146.9" font-family="Arial" font-size="14.00" fill="#000000">JOB_INSTANCE_ID </text>
<text text-anchor="start" x="188.453" y="-146.9" font-family="Arial" font-size="14.00" fill="#666666">[bigint]</text>
<polygon fill="none" stroke="#000000" points="50,-105.5 50,-135.5 398,-135.5 398,-105.5 50,-105.5"/>
<text text-anchor="start" x="57" y="-116.9" font-family="Arial" font-size="14.00" fill="#000000">VERSION </text>
<text text-anchor="start" x="123.8948" y="-116.9" font-family="Arial" font-size="14.00" fill="#666666">[bigint]</text>
<polygon fill="none" stroke="#000000" points="50,-75.5 50,-105.5 398,-105.5 398,-75.5 50,-75.5"/>
<text text-anchor="start" x="57" y="-86.9" font-family="Arial" font-size="14.00" fill="#000000">JOB_NAME </text>
<text text-anchor="start" x="136.3408" y="-86.9" font-family="Arial" font-size="14.00" fill="#666666">[varchar(100)]</text>
<polygon fill="none" stroke="#000000" points="50,-45.5 50,-75.5 398,-75.5 398,-45.5 50,-45.5"/>
<text text-anchor="start" x="57" y="-56.9" font-family="Arial" font-size="14.00" fill="#000000">JOB_KEY </text>
<text text-anchor="start" x="123.9102" y="-56.9" font-family="Arial" font-size="14.00" fill="#666666">[varchar(32)]</text>
<polygon fill="none" stroke="#000000" stroke-width="3" points="48.5,-44.5 48.5,-202.5 399.5,-202.5 399.5,-44.5 48.5,-44.5"/>
</g>
<!-- BATCH_JOB_EXECUTION -->
<g id="node2" class="node">
<title>BATCH_JOB_EXECUTION</title>
<polygon fill="#efefef" stroke="transparent" points="43,-625.5 43,-660.5 405,-660.5 405,-625.5 43,-625.5"/>
<polygon fill="none" stroke="#000000" points="43,-625.5 43,-660.5 405,-660.5 405,-625.5 43,-625.5"/>
<text text-anchor="start" x="49.7122" y="-638.3" font-family="Arial Bold" font-size="18.00" fill="#000000">BATCH_JOB_EXECUTION</text>
<text text-anchor="start" x="270.7198" y="-638.3" font-family="Arial" font-size="14.00" fill="#000000">    </text>
<text text-anchor="start" x="304.9246" y="-638.3" font-family="Arial" font-size="14.00" fill="#666666">[BASE TABLE]</text>
<polygon fill="none" stroke="#000000" points="43,-595.5 43,-625.5 405,-625.5 405,-595.5 43,-595.5"/>
<text text-anchor="start" x="50" y="-606.9" font-family="Arial" font-size="14.00" fill="#000000">JOB_EXECUTION_ID    </text>
<text text-anchor="start" x="222.6578" y="-606.9" font-family="Arial" font-size="14.00" fill="#666666">[bigint]</text>
<polygon fill="none" stroke="#000000" points="43,-565.5 43,-595.5 405,-595.5 405,-565.5 43,-565.5"/>
<text text-anchor="start" x="50" y="-576.9" font-family="Arial" font-size="14.00" fill="#000000">VERSION    </text>
<text text-anchor="start" x="147.209" y="-576.9" font-family="Arial" font-size="14.00" fill="#666666">[bigint]</text>
<polygon fill="none" stroke="#000000" points="43,-535.5 43,-565.5 405,-565.5 405,-535.5 43,-535.5"/>
<text text-anchor="start" x="50" y="-546.9" font-family="Arial" font-size="14.00" fill="#000000">JOB_INSTANCE_ID    </text>
<text text-anchor="start" x="211.7672" y="-546.9" font-family="Arial" font-size="14.00" fill="#666666">[bigint]</text>
<polygon fill="none" stroke="#000000" points="43,-505.5 43,-535.5 405,-535.5 405,-505.5 43,-505.5"/>
<text text-anchor="start" x="50" y="-516.9" font-family="Arial" font-size="14.00" fill="#000000">CREATE_TIME    </text>
<text text-anchor="start" x="182.2034" y="-516.9" font-family="Arial" font-size="14.00" fill="#666666">[datetime(6)]</text>
<polygon fill="none" stroke="#000000" points="43,-475.5 43,-505.5 405,-505.5 405,-475.5 43,-475.5"/>
<text text-anchor="start" x="50" y="-486.9" font-family="Arial" font-size="14.00" fill="#000000">START_TIME    </text>
<text text-anchor="start" x="171.3128" y="-486.9" font-family="Arial" font-size="14.00" fill="#666666">[datetime(6)]</text>
<polygon fill="none" stroke="#000000" points="43,-445.5 43,-475.5 405,-475.5 405,-445.5 43,-445.5"/>
<text text-anchor="start" x="50" y="-456.9" font-family="Arial" font-size="14.00" fill="#000000">END_TIME    </text>
<text text-anchor="start" x="154.9776" y="-456.9" font-family="Arial" font-size="14.00" fill="#666666">[datetime(6)]</text>
<polygon fill="none" stroke="#000000" points="43,-415.5 43,-445.5 405,-445.5 405,-415.5 43,-415.5"/>
<text text-anchor="start" x="50" y="-426.9" font-family="Arial" font-size="14.00" fill="#000000">STATUS    </text>
<text text-anchor="start" x="139.4264" y="-426.9" font-family="Arial" font-size="14.00" fill="#666666">[varchar(10)]</text>
<polygon fill="none" stroke="#000000" points="43,-385.5 43,-415.5 405,-415.5 405,-385.5 43,-385.5"/>
<text text-anchor="start" x="50" y="-396.9" font-family="Arial" font-size="14.00" fill="#000000">EXIT_CODE    </text>
<text text-anchor="start" x="163.5442" y="-396.9" font-family="Arial" font-size="14.00" fill="#666666">[varchar(2500)]</text>
<polygon fill="none" stroke="#000000" points="43,-355.5 43,-385.5 405,-385.5 405,-355.5 43,-355.5"/>
<text text-anchor="start" x="50" y="-366.9" font-family="Arial" font-size="14.00" fill="#000000">EXIT_MESSAGE    </text>
<text text-anchor="start" x="192.338" y="-366.9" font-family="Arial" font-size="14.00" fill="#666666">[varchar(2500)]</text>
<polygon fill="none" stroke="#000000" points="43,-325.5 43,-355.5 405,-355.5 405,-325.5 43,-325.5"/>
<text text-anchor="start" x="50" y="-336.9" font-family="Arial" font-size="14.00" fill="#000000">LAST_UPDATED    </text>
<text text-anchor="start" x="193.878" y="-336.9" font-family="Arial" font-size="14.00" fill="#666666">[datetime(6)]</text>
</g>
<!-- BATCH_JOB_EXECUTION&#45;&gt;BATCH_JOB_INSTANCE -->
<g id="edge1" class="edge">
<title>BATCH_JOB_EXECUTION:JOB_INSTANCE_ID&#45;&gt;BATCH_JOB_INSTANCE:JOB_INSTANCE_ID</title>
<path fill="none" stroke="#000000" d="M414.9801,-548.7166C493.2307,-519.8604 483.4297,-150.5 398,-150.5"/>
<polygon fill="#000000" stroke="#000000" points="414.8441,-548.7409 404.2084,-546.0702 409.922,-549.6204 405,-550.5 405,-550.5 405,-550.5 409.922,-549.6204 405.7916,-554.9298 414.8441,-548.7409 414.8441,-548.7409"/>
<text text-anchor="start" x="411.832" y="-560.5" font-family="Arial" font-size="10.00" fill="#000000">FOREIGN KEY (JOB_INSTANCE_ID) REFERENCES BATCH_JOB_INSTANCE (JOB_INSTANCE_ID)</text>
</g>
</g>
</svg>
