<?xml version="1.0" encoding="UTF-8" standalone="no"?>
<!DOCTYPE svg PUBLIC "-//W3C//DTD SVG 1.1//EN"
 "http://www.w3.org/Graphics/SVG/1.1/DTD/svg11.dtd">
<!-- Generated by graphviz version 2.40.1 (20161225.0304)
 -->
<!-- Title: BATCH_JOB_EXECUTION_CONTEXT Pages: 1 -->
<svg width="1007pt" height="682pt"
 viewBox="0.00 0.00 1007.00 682.00" xmlns="http://www.w3.org/2000/svg" xmlns:xlink="http://www.w3.org/1999/xlink">
<g id="graph0" class="graph" transform="scale(1 1) rotate(0) translate(4 678)">
<title>BATCH_JOB_EXECUTION_CONTEXT</title>
<polygon fill="#ffffff" stroke="transparent" points="-4,4 -4,-678 1003,-678 1003,4 -4,4"/>
<!-- BATCH_JOB_EXECUTION_CONTEXT -->
<g id="node1" class="node">
<title>BATCH_JOB_EXECUTION_CONTEXT</title>
<polygon fill="#efefef" stroke="transparent" points="46,-592.5 46,-627.5 504,-627.5 504,-592.5 46,-592.5"/>
<polygon fill="none" stroke="#000000" points="46,-592.5 46,-627.5 504,-627.5 504,-592.5 46,-592.5"/>
<text text-anchor="start" x="52.7134" y="-605.3" font-family="Arial Bold" font-size="18.00" fill="#000000">BATCH_JOB_EXECUTION_CONTEXT</text>
<text text-anchor="start" x="369.7186" y="-605.3" font-family="Arial" font-size="14.00" fill="#000000">    </text>
<text text-anchor="start" x="403.9234" y="-605.3" font-family="Arial" font-size="14.00" fill="#666666">[BASE TABLE]</text>
<polygon fill="none" stroke="#000000" points="46,-562.5 46,-592.5 504,-592.5 504,-562.5 46,-562.5"/>
<text text-anchor="start" x="53" y="-573.9" font-family="Arial" font-size="14.00" fill="#000000">JOB_EXECUTION_ID </text>
<text text-anchor="start" x="195.3436" y="-573.9" font-family="Arial" font-size="14.00" fill="#666666">[bigint]</text>
<polygon fill="none" stroke="#000000" points="46,-532.5 46,-562.5 504,-562.5 504,-532.5 46,-532.5"/>
<text text-anchor="start" x="53" y="-543.9" font-family="Arial" font-size="14.00" fill="#000000">SHORT_CONTEXT </text>
<text text-anchor="start" x="180.5484" y="-543.9" font-family="Arial" font-size="14.00" fill="#666666">[varchar(2500)]</text>
<polygon fill="none" stroke="#000000" points="46,-502.5 46,-532.5 504,-532.5 504,-502.5 46,-502.5"/>
<text text-anchor="start" x="53" y="-513.9" font-family="Arial" font-size="14.00" fill="#000000">SERIALIZED_CONTEXT </text>
<text text-anchor="start" x="213.2314" y="-513.9" font-family="Arial" font-size="14.00" fill="#666666">[text]</text>
<polygon fill="none" stroke="#000000" stroke-width="3" points="44.5,-501.5 44.5,-629.5 505.5,-629.5 505.5,-501.5 44.5,-501.5"/>
</g>
<!-- BATCH_JOB_EXECUTION -->
<g id="node2" class="node">
<title>BATCH_JOB_EXECUTION</title>
<polygon fill="#efefef" stroke="transparent" points="94,-342.5 94,-377.5 456,-377.5 456,-342.5 94,-342.5"/>
<polygon fill="none" stroke="#000000" points="94,-342.5 94,-377.5 456,-377.5 456,-342.5 94,-342.5"/>
<text text-anchor="start" x="100.7122" y="-355.3" font-family="Arial Bold" font-size="18.00" fill="#000000">BATCH_JOB_EXECUTION</text>
<text text-anchor="start" x="321.7198" y="-355.3" font-family="Arial" font-size="14.00" fill="#000000">    </text>
<text text-anchor="start" x="355.9246" y="-355.3" font-family="Arial" font-size="14.00" fill="#666666">[BASE TABLE]</text>
<polygon fill="none" stroke="#000000" points="94,-312.5 94,-342.5 456,-342.5 456,-312.5 94,-312.5"/>
<text text-anchor="start" x="101" y="-323.9" font-family="Arial" font-size="14.00" fill="#000000">JOB_EXECUTION_ID    </text>
<text text-anchor="start" x="273.6578" y="-323.9" font-family="Arial" font-size="14.00" fill="#666666">[bigint]</text>
<polygon fill="none" stroke="#000000" points="94,-282.5 94,-312.5 456,-312.5 456,-282.5 94,-282.5"/>
<text text-anchor="start" x="101" y="-293.9" font-family="Arial" font-size="14.00" fill="#000000">VERSION    </text>
<text text-anchor="start" x="198.209" y="-293.9" font-family="Arial" font-size="14.00" fill="#666666">[bigint]</text>
<polygon fill="none" stroke="#000000" points="94,-252.5 94,-282.5 456,-282.5 456,-252.5 94,-252.5"/>
<text text-anchor="start" x="101" y="-263.9" font-family="Arial" font-size="14.00" fill="#000000">JOB_INSTANCE_ID    </text>
<text text-anchor="start" x="262.7672" y="-263.9" font-family="Arial" font-size="14.00" fill="#666666">[bigint]</text>
<polygon fill="none" stroke="#000000" points="94,-222.5 94,-252.5 456,-252.5 456,-222.5 94,-222.5"/>
<text text-anchor="start" x="101" y="-233.9" font-family="Arial" font-size="14.00" fill="#000000">CREATE_TIME    </text>
<text text-anchor="start" x="233.2034" y="-233.9" font-family="Arial" font-size="14.00" fill="#666666">[datetime(6)]</text>
<polygon fill="none" stroke="#000000" points="94,-192.5 94,-222.5 456,-222.5 456,-192.5 94,-192.5"/>
<text text-anchor="start" x="101" y="-203.9" font-family="Arial" font-size="14.00" fill="#000000">START_TIME    </text>
<text text-anchor="start" x="222.3128" y="-203.9" font-family="Arial" font-size="14.00" fill="#666666">[datetime(6)]</text>
<polygon fill="none" stroke="#000000" points="94,-162.5 94,-192.5 456,-192.5 456,-162.5 94,-162.5"/>
<text text-anchor="start" x="101" y="-173.9" font-family="Arial" font-size="14.00" fill="#000000">END_TIME    </text>
<text text-anchor="start" x="205.9776" y="-173.9" font-family="Arial" font-size="14.00" fill="#666666">[datetime(6)]</text>
<polygon fill="none" stroke="#000000" points="94,-132.5 94,-162.5 456,-162.5 456,-132.5 94,-132.5"/>
<text text-anchor="start" x="101" y="-143.9" font-family="Arial" font-size="14.00" fill="#000000">STATUS    </text>
<text text-anchor="start" x="190.4264" y="-143.9" font-family="Arial" font-size="14.00" fill="#666666">[varchar(10)]</text>
<polygon fill="none" stroke="#000000" points="94,-102.5 94,-132.5 456,-132.5 456,-102.5 94,-102.5"/>
<text text-anchor="start" x="101" y="-113.9" font-family="Arial" font-size="14.00" fill="#000000">EXIT_CODE    </text>
<text text-anchor="start" x="214.5442" y="-113.9" font-family="Arial" font-size="14.00" fill="#666666">[varchar(2500)]</text>
<polygon fill="none" stroke="#000000" points="94,-72.5 94,-102.5 456,-102.5 456,-72.5 94,-72.5"/>
<text text-anchor="start" x="101" y="-83.9" font-family="Arial" font-size="14.00" fill="#000000">EXIT_MESSAGE    </text>
<text text-anchor="start" x="243.338" y="-83.9" font-family="Arial" font-size="14.00" fill="#666666">[varchar(2500)]</text>
<polygon fill="none" stroke="#000000" points="94,-42.5 94,-72.5 456,-72.5 456,-42.5 94,-42.5"/>
<text text-anchor="start" x="101" y="-53.9" font-family="Arial" font-size="14.00" fill="#000000">LAST_UPDATED    </text>
<text text-anchor="start" x="244.878" y="-53.9" font-family="Arial" font-size="14.00" fill="#666666">[datetime(6)]</text>
</g>
<!-- BATCH_JOB_EXECUTION_CONTEXT&#45;&gt;BATCH_JOB_EXECUTION -->
<g id="edge1" class="edge">
<title>BATCH_JOB_EXECUTION_CONTEXT:JOB_EXECUTION_ID&#45;&gt;BATCH_JOB_EXECUTION:JOB_EXECUTION_ID</title>
<path fill="none" stroke="#000000" d="M514.1378,-576.7828C614.077,-562.1191 565.6049,-327.5 456,-327.5"/>
<polygon fill="#000000" stroke="#000000" points="513.9751,-576.7943 503.6824,-573.0112 508.9875,-577.1471 504,-577.5 504,-577.5 504,-577.5 508.9875,-577.1471 504.3176,-581.9888 513.9751,-576.7943 513.9751,-576.7943"/>
<text text-anchor="start" x="511.1635" y="-587.5" font-family="Arial" font-size="10.00" fill="#000000">FOREIGN KEY (JOB_EXECUTION_ID) REFERENCES BATCH_JOB_EXECUTION (JOB_EXECUTION_ID)</text>
</g>
</g>
</svg>
