<?xml version="1.0" encoding="UTF-8" standalone="no"?>
<!DOCTYPE svg PUBLIC "-//W3C//DTD SVG 1.1//EN"
 "http://www.w3.org/Graphics/SVG/1.1/DTD/svg11.dtd">
<!-- Generated by graphviz version 2.40.1 (20161225.0304)
 -->
<!-- Title: CRAWLER_INFO_CONTENTS Pages: 1 -->
<svg width="493pt" height="405pt"
 viewBox="0.00 0.00 493.00 405.00" xmlns="http://www.w3.org/2000/svg" xmlns:xlink="http://www.w3.org/1999/xlink">
<g id="graph0" class="graph" transform="scale(1 1) rotate(0) translate(4 401)">
<title>CRAWLER_INFO_CONTENTS</title>
<polygon fill="#ffffff" stroke="transparent" points="-4,4 -4,-401 489,-401 489,4 -4,4"/>
<!-- CRAWLER_INFO_CONTENTS -->
<g id="node1" class="node">
<title>CRAWLER_INFO_CONTENTS</title>
<polygon fill="#efefef" stroke="transparent" points="46.5,-315.5 46.5,-350.5 439.5,-350.5 439.5,-315.5 46.5,-315.5"/>
<polygon fill="none" stroke="#000000" points="46.5,-315.5 46.5,-350.5 439.5,-350.5 439.5,-315.5 46.5,-315.5"/>
<text text-anchor="start" x="53.2259" y="-328.3" font-family="Arial Bold" font-size="18.00" fill="#000000">CRAWLER_INFO_CONTENTS</text>
<text text-anchor="start" x="305.2061" y="-328.3" font-family="Arial" font-size="14.00" fill="#000000">    </text>
<text text-anchor="start" x="339.4109" y="-328.3" font-family="Arial" font-size="14.00" fill="#666666">[BASE TABLE]</text>
<polygon fill="none" stroke="#000000" points="46.5,-285.5 46.5,-315.5 439.5,-315.5 439.5,-285.5 46.5,-285.5"/>
<text text-anchor="start" x="53.5" y="-296.9" font-family="Arial" font-size="14.00" fill="#000000">SEQ </text>
<text text-anchor="start" x="86.9544" y="-296.9" font-family="Arial" font-size="14.00" fill="#666666">[bigint]</text>
<polygon fill="none" stroke="#000000" points="46.5,-255.5 46.5,-285.5 439.5,-285.5 439.5,-255.5 46.5,-255.5"/>
<text text-anchor="start" x="53.5" y="-266.9" font-family="Arial" font-size="14.00" fill="#000000">SITE_SEQ </text>
<text text-anchor="start" x="125.8534" y="-266.9" font-family="Arial" font-size="14.00" fill="#666666">[bigint]</text>
<polygon fill="none" stroke="#000000" points="46.5,-225.5 46.5,-255.5 439.5,-255.5 439.5,-225.5 46.5,-225.5"/>
<text text-anchor="start" x="53.5" y="-236.9" font-family="Arial" font-size="14.00" fill="#000000">CONTENTS_SEQ </text>
<text text-anchor="start" x="171.7258" y="-236.9" font-family="Arial" font-size="14.00" fill="#666666">[text]</text>
<polygon fill="none" stroke="#000000" points="46.5,-195.5 46.5,-225.5 439.5,-225.5 439.5,-195.5 46.5,-195.5"/>
<text text-anchor="start" x="53.5" y="-206.9" font-family="Arial" font-size="14.00" fill="#000000">CONTENTS_URL </text>
<text text-anchor="start" x="170.1578" y="-206.9" font-family="Arial" font-size="14.00" fill="#666666">[text]</text>
<polygon fill="none" stroke="#000000" points="46.5,-165.5 46.5,-195.5 439.5,-195.5 439.5,-165.5 46.5,-165.5"/>
<text text-anchor="start" x="53.5" y="-176.9" font-family="Arial" font-size="14.00" fill="#000000">TITLE </text>
<text text-anchor="start" x="95.5056" y="-176.9" font-family="Arial" font-size="14.00" fill="#666666">[text]</text>
<polygon fill="none" stroke="#000000" points="46.5,-135.5 46.5,-165.5 439.5,-165.5 439.5,-135.5 46.5,-135.5"/>
<text text-anchor="start" x="53.5" y="-146.9" font-family="Arial" font-size="14.00" fill="#000000">CONTENTS </text>
<text text-anchor="start" x="134.3794" y="-146.9" font-family="Arial" font-size="14.00" fill="#666666">[text]</text>
<polygon fill="none" stroke="#000000" points="46.5,-105.5 46.5,-135.5 439.5,-135.5 439.5,-105.5 46.5,-105.5"/>
<text text-anchor="start" x="53.5" y="-116.9" font-family="Arial" font-size="14.00" fill="#000000">STATUS </text>
<text text-anchor="start" x="112.6122" y="-116.9" font-family="Arial" font-size="14.00" fill="#666666">[varchar(100)]</text>
<polygon fill="none" stroke="#000000" points="46.5,-75.5 46.5,-105.5 439.5,-105.5 439.5,-75.5 46.5,-75.5"/>
<text text-anchor="start" x="53.5" y="-86.9" font-family="Arial" font-size="14.00" fill="#000000">INSERTED_AT </text>
<text text-anchor="start" x="153.8352" y="-86.9" font-family="Arial" font-size="14.00" fill="#666666">[datetime]</text>
<polygon fill="none" stroke="#000000" points="46.5,-45.5 46.5,-75.5 439.5,-75.5 439.5,-45.5 46.5,-45.5"/>
<text text-anchor="start" x="53.5" y="-56.9" font-family="Arial" font-size="14.00" fill="#000000">UPDATED_AT </text>
<text text-anchor="start" x="149.9446" y="-56.9" font-family="Arial" font-size="14.00" fill="#666666">[datetime]</text>
<polygon fill="none" stroke="#000000" stroke-width="3" points="44.5,-44.5 44.5,-352.5 440.5,-352.5 440.5,-44.5 44.5,-44.5"/>
</g>
</g>
</svg>
