<?xml version="1.0" encoding="UTF-8" standalone="no"?>
<!DOCTYPE svg PUBLIC "-//W3C//DTD SVG 1.1//EN"
 "http://www.w3.org/Graphics/SVG/1.1/DTD/svg11.dtd">
<!-- Generated by graphviz version 2.40.1 (20161225.0304)
 -->
<!-- Title: CRAWLER_SITE_INFO Pages: 1 -->
<svg width="434pt" height="345pt"
 viewBox="0.00 0.00 434.00 345.00" xmlns="http://www.w3.org/2000/svg" xmlns:xlink="http://www.w3.org/1999/xlink">
<g id="graph0" class="graph" transform="scale(1 1) rotate(0) translate(4 341)">
<title>CRAWLER_SITE_INFO</title>
<polygon fill="#ffffff" stroke="transparent" points="-4,4 -4,-341 430,-341 430,4 -4,4"/>
<!-- CRAWLER_SITE_INFO -->
<g id="node1" class="node">
<title>CRAWLER_SITE_INFO</title>
<polygon fill="#efefef" stroke="transparent" points="46,-255.5 46,-290.5 380,-290.5 380,-255.5 46,-255.5"/>
<polygon fill="none" stroke="#000000" points="46,-255.5 46,-290.5 380,-290.5 380,-255.5 46,-255.5"/>
<text text-anchor="start" x="52.7153" y="-268.3" font-family="Arial Bold" font-size="18.00" fill="#000000">CRAWLER_SITE_INFO</text>
<text text-anchor="start" x="245.7167" y="-268.3" font-family="Arial" font-size="14.00" fill="#000000">    </text>
<text text-anchor="start" x="279.9215" y="-268.3" font-family="Arial" font-size="14.00" fill="#666666">[BASE TABLE]</text>
<polygon fill="none" stroke="#000000" points="46,-225.5 46,-255.5 380,-255.5 380,-225.5 46,-225.5"/>
<text text-anchor="start" x="53" y="-236.9" font-family="Arial" font-size="14.00" fill="#000000">SEQ </text>
<text text-anchor="start" x="86.4544" y="-236.9" font-family="Arial" font-size="14.00" fill="#666666">[bigint]</text>
<polygon fill="none" stroke="#000000" points="46,-195.5 46,-225.5 380,-225.5 380,-195.5 46,-195.5"/>
<text text-anchor="start" x="53" y="-206.9" font-family="Arial" font-size="14.00" fill="#000000">SITE </text>
<text text-anchor="start" x="88.007" y="-206.9" font-family="Arial" font-size="14.00" fill="#666666">[varchar(50)]</text>
<polygon fill="none" stroke="#000000" points="46,-165.5 46,-195.5 380,-195.5 380,-165.5 46,-165.5"/>
<text text-anchor="start" x="53" y="-176.9" font-family="Arial" font-size="14.00" fill="#000000">SITE_NAME </text>
<text text-anchor="start" x="136.23" y="-176.9" font-family="Arial" font-size="14.00" fill="#666666">[varchar(100)]</text>
<polygon fill="none" stroke="#000000" points="46,-135.5 46,-165.5 380,-165.5 380,-135.5 46,-135.5"/>
<text text-anchor="start" x="53" y="-146.9" font-family="Arial" font-size="14.00" fill="#000000">SITE_BASE_URL </text>
<text text-anchor="start" x="168.9144" y="-146.9" font-family="Arial" font-size="14.00" fill="#666666">[varchar(200)]</text>
<polygon fill="none" stroke="#000000" points="46,-105.5 46,-135.5 380,-135.5 380,-105.5 46,-105.5"/>
<text text-anchor="start" x="53" y="-116.9" font-family="Arial" font-size="14.00" fill="#000000">CRAWLER_YN </text>
<text text-anchor="start" x="154.1066" y="-116.9" font-family="Arial" font-size="14.00" fill="#666666">[varchar(1)]</text>
<polygon fill="none" stroke="#000000" points="46,-75.5 46,-105.5 380,-105.5 380,-75.5 46,-75.5"/>
<text text-anchor="start" x="53" y="-86.9" font-family="Arial" font-size="14.00" fill="#000000">INSERTED_AT </text>
<text text-anchor="start" x="153.3352" y="-86.9" font-family="Arial" font-size="14.00" fill="#666666">[datetime]</text>
<polygon fill="none" stroke="#000000" points="46,-45.5 46,-75.5 380,-75.5 380,-45.5 46,-45.5"/>
<text text-anchor="start" x="53" y="-56.9" font-family="Arial" font-size="14.00" fill="#000000">UPDATED_AT </text>
<text text-anchor="start" x="149.4446" y="-56.9" font-family="Arial" font-size="14.00" fill="#666666">[datetime]</text>
<polygon fill="none" stroke="#000000" stroke-width="3" points="44.5,-44.5 44.5,-292.5 381.5,-292.5 381.5,-44.5 44.5,-44.5"/>
</g>
</g>
</svg>
