<?xml version="1.0" encoding="UTF-8" standalone="no"?>
<!DOCTYPE svg PUBLIC "-//W3C//DTD SVG 1.1//EN"
 "http://www.w3.org/Graphics/SVG/1.1/DTD/svg11.dtd">
<!-- Generated by graphviz version 2.40.1 (20161225.0304)
 -->
<!-- Title: local Pages: 1 -->
<svg width="4340pt" height="1860pt"
 viewBox="0.00 0.00 4339.50 1860.00" xmlns="http://www.w3.org/2000/svg" xmlns:xlink="http://www.w3.org/1999/xlink">
<g id="graph0" class="graph" transform="scale(1 1) rotate(0) translate(4 1856)">
<title>local</title>
<polygon fill="#ffffff" stroke="transparent" points="-4,4 -4,-1856 4335.5,-1856 4335.5,4 -4,4"/>
<!-- BATCH_JOB_EXECUTION -->
<g id="node1" class="node">
<title>BATCH_JOB_EXECUTION</title>
<polygon fill="#efefef" stroke="transparent" points="648,-619.5 648,-654.5 1010,-654.5 1010,-619.5 648,-619.5"/>
<polygon fill="none" stroke="#000000" points="648,-619.5 648,-654.5 1010,-654.5 1010,-619.5 648,-619.5"/>
<text text-anchor="start" x="654.7122" y="-632.3" font-family="Arial Bold" font-size="18.00" fill="#000000">BATCH_JOB_EXECUTION</text>
<text text-anchor="start" x="875.7198" y="-632.3" font-family="Arial" font-size="14.00" fill="#000000">    </text>
<text text-anchor="start" x="909.9246" y="-632.3" font-family="Arial" font-size="14.00" fill="#666666">[BASE TABLE]</text>
<polygon fill="none" stroke="#000000" points="648,-589.5 648,-619.5 1010,-619.5 1010,-589.5 648,-589.5"/>
<text text-anchor="start" x="655" y="-600.9" font-family="Arial" font-size="14.00" fill="#000000">JOB_EXECUTION_ID    </text>
<text text-anchor="start" x="827.6578" y="-600.9" font-family="Arial" font-size="14.00" fill="#666666">[bigint]</text>
<polygon fill="none" stroke="#000000" points="648,-559.5 648,-589.5 1010,-589.5 1010,-559.5 648,-559.5"/>
<text text-anchor="start" x="655" y="-570.9" font-family="Arial" font-size="14.00" fill="#000000">VERSION    </text>
<text text-anchor="start" x="752.209" y="-570.9" font-family="Arial" font-size="14.00" fill="#666666">[bigint]</text>
<polygon fill="none" stroke="#000000" points="648,-529.5 648,-559.5 1010,-559.5 1010,-529.5 648,-529.5"/>
<text text-anchor="start" x="655" y="-540.9" font-family="Arial" font-size="14.00" fill="#000000">JOB_INSTANCE_ID    </text>
<text text-anchor="start" x="816.7672" y="-540.9" font-family="Arial" font-size="14.00" fill="#666666">[bigint]</text>
<polygon fill="none" stroke="#000000" points="648,-499.5 648,-529.5 1010,-529.5 1010,-499.5 648,-499.5"/>
<text text-anchor="start" x="655" y="-510.9" font-family="Arial" font-size="14.00" fill="#000000">CREATE_TIME    </text>
<text text-anchor="start" x="787.2034" y="-510.9" font-family="Arial" font-size="14.00" fill="#666666">[datetime(6)]</text>
<polygon fill="none" stroke="#000000" points="648,-469.5 648,-499.5 1010,-499.5 1010,-469.5 648,-469.5"/>
<text text-anchor="start" x="655" y="-480.9" font-family="Arial" font-size="14.00" fill="#000000">START_TIME    </text>
<text text-anchor="start" x="776.3128" y="-480.9" font-family="Arial" font-size="14.00" fill="#666666">[datetime(6)]</text>
<polygon fill="none" stroke="#000000" points="648,-439.5 648,-469.5 1010,-469.5 1010,-439.5 648,-439.5"/>
<text text-anchor="start" x="655" y="-450.9" font-family="Arial" font-size="14.00" fill="#000000">END_TIME    </text>
<text text-anchor="start" x="759.9776" y="-450.9" font-family="Arial" font-size="14.00" fill="#666666">[datetime(6)]</text>
<polygon fill="none" stroke="#000000" points="648,-409.5 648,-439.5 1010,-439.5 1010,-409.5 648,-409.5"/>
<text text-anchor="start" x="655" y="-420.9" font-family="Arial" font-size="14.00" fill="#000000">STATUS    </text>
<text text-anchor="start" x="744.4264" y="-420.9" font-family="Arial" font-size="14.00" fill="#666666">[varchar(10)]</text>
<polygon fill="none" stroke="#000000" points="648,-379.5 648,-409.5 1010,-409.5 1010,-379.5 648,-379.5"/>
<text text-anchor="start" x="655" y="-390.9" font-family="Arial" font-size="14.00" fill="#000000">EXIT_CODE    </text>
<text text-anchor="start" x="768.5442" y="-390.9" font-family="Arial" font-size="14.00" fill="#666666">[varchar(2500)]</text>
<polygon fill="none" stroke="#000000" points="648,-349.5 648,-379.5 1010,-379.5 1010,-349.5 648,-349.5"/>
<text text-anchor="start" x="655" y="-360.9" font-family="Arial" font-size="14.00" fill="#000000">EXIT_MESSAGE    </text>
<text text-anchor="start" x="797.338" y="-360.9" font-family="Arial" font-size="14.00" fill="#666666">[varchar(2500)]</text>
<polygon fill="none" stroke="#000000" points="648,-319.5 648,-349.5 1010,-349.5 1010,-319.5 648,-319.5"/>
<text text-anchor="start" x="655" y="-330.9" font-family="Arial" font-size="14.00" fill="#000000">LAST_UPDATED    </text>
<text text-anchor="start" x="798.878" y="-330.9" font-family="Arial" font-size="14.00" fill="#666666">[datetime(6)]</text>
</g>
<!-- BATCH_JOB_INSTANCE -->
<g id="node5" class="node">
<title>BATCH_JOB_INSTANCE</title>
<polygon fill="#efefef" stroke="transparent" points="655,-162.5 655,-197.5 1003,-197.5 1003,-162.5 655,-162.5"/>
<polygon fill="none" stroke="#000000" points="655,-162.5 655,-197.5 1003,-197.5 1003,-162.5 655,-162.5"/>
<text text-anchor="start" x="661.7133" y="-175.3" font-family="Arial Bold" font-size="18.00" fill="#000000">BATCH_JOB_INSTANCE</text>
<text text-anchor="start" x="868.7187" y="-175.3" font-family="Arial" font-size="14.00" fill="#000000">    </text>
<text text-anchor="start" x="902.9235" y="-175.3" font-family="Arial" font-size="14.00" fill="#666666">[BASE TABLE]</text>
<polygon fill="none" stroke="#000000" points="655,-132.5 655,-162.5 1003,-162.5 1003,-132.5 655,-132.5"/>
<text text-anchor="start" x="662" y="-143.9" font-family="Arial" font-size="14.00" fill="#000000">JOB_INSTANCE_ID    </text>
<text text-anchor="start" x="823.7672" y="-143.9" font-family="Arial" font-size="14.00" fill="#666666">[bigint]</text>
<polygon fill="none" stroke="#000000" points="655,-102.5 655,-132.5 1003,-132.5 1003,-102.5 655,-102.5"/>
<text text-anchor="start" x="662" y="-113.9" font-family="Arial" font-size="14.00" fill="#000000">VERSION    </text>
<text text-anchor="start" x="759.209" y="-113.9" font-family="Arial" font-size="14.00" fill="#666666">[bigint]</text>
<polygon fill="none" stroke="#000000" points="655,-72.5 655,-102.5 1003,-102.5 1003,-72.5 655,-72.5"/>
<text text-anchor="start" x="662" y="-83.9" font-family="Arial" font-size="14.00" fill="#000000">JOB_NAME    </text>
<text text-anchor="start" x="771.655" y="-83.9" font-family="Arial" font-size="14.00" fill="#666666">[varchar(100)]</text>
<polygon fill="none" stroke="#000000" points="655,-42.5 655,-72.5 1003,-72.5 1003,-42.5 655,-42.5"/>
<text text-anchor="start" x="662" y="-53.9" font-family="Arial" font-size="14.00" fill="#000000">JOB_KEY    </text>
<text text-anchor="start" x="759.2244" y="-53.9" font-family="Arial" font-size="14.00" fill="#666666">[varchar(32)]</text>
</g>
<!-- BATCH_JOB_EXECUTION&#45;&gt;BATCH_JOB_INSTANCE -->
<g id="edge1" class="edge">
<title>BATCH_JOB_EXECUTION:JOB_INSTANCE_ID&#45;&gt;BATCH_JOB_INSTANCE:JOB_INSTANCE_ID</title>
<path fill="none" stroke="#000000" d="M1020.1303,-544.0516C1186.1338,-529.1436 1176.0252,-147.5 1003,-147.5"/>
<polygon fill="#000000" stroke="#000000" points="1019.9902,-544.0577 1009.801,-540.0044 1014.9951,-544.2788 1010,-544.5 1010,-544.5 1010,-544.5 1014.9951,-544.2788 1010.199,-548.9956 1019.9902,-544.0577 1019.9902,-544.0577"/>
<text text-anchor="start" x="1016.832" y="-554.5" font-family="Arial" font-size="10.00" fill="#000000">FOREIGN KEY (JOB_INSTANCE_ID) REFERENCES BATCH_JOB_INSTANCE (JOB_INSTANCE_ID)</text>
</g>
<!-- BATCH_JOB_EXECUTION_CONTEXT -->
<g id="node2" class="node">
<title>BATCH_JOB_EXECUTION_CONTEXT</title>
<polygon fill="#efefef" stroke="transparent" points="43,-1106.5 43,-1141.5 501,-1141.5 501,-1106.5 43,-1106.5"/>
<polygon fill="none" stroke="#000000" points="43,-1106.5 43,-1141.5 501,-1141.5 501,-1106.5 43,-1106.5"/>
<text text-anchor="start" x="49.7134" y="-1119.3" font-family="Arial Bold" font-size="18.00" fill="#000000">BATCH_JOB_EXECUTION_CONTEXT</text>
<text text-anchor="start" x="366.7186" y="-1119.3" font-family="Arial" font-size="14.00" fill="#000000">    </text>
<text text-anchor="start" x="400.9234" y="-1119.3" font-family="Arial" font-size="14.00" fill="#666666">[BASE TABLE]</text>
<polygon fill="none" stroke="#000000" points="43,-1076.5 43,-1106.5 501,-1106.5 501,-1076.5 43,-1076.5"/>
<text text-anchor="start" x="50" y="-1087.9" font-family="Arial" font-size="14.00" fill="#000000">JOB_EXECUTION_ID    </text>
<text text-anchor="start" x="222.6578" y="-1087.9" font-family="Arial" font-size="14.00" fill="#666666">[bigint]</text>
<polygon fill="none" stroke="#000000" points="43,-1046.5 43,-1076.5 501,-1076.5 501,-1046.5 43,-1046.5"/>
<text text-anchor="start" x="50" y="-1057.9" font-family="Arial" font-size="14.00" fill="#000000">SHORT_CONTEXT    </text>
<text text-anchor="start" x="207.8626" y="-1057.9" font-family="Arial" font-size="14.00" fill="#666666">[varchar(2500)]</text>
<polygon fill="none" stroke="#000000" points="43,-1016.5 43,-1046.5 501,-1046.5 501,-1016.5 43,-1016.5"/>
<text text-anchor="start" x="50" y="-1027.9" font-family="Arial" font-size="14.00" fill="#000000">SERIALIZED_CONTEXT    </text>
<text text-anchor="start" x="240.5456" y="-1027.9" font-family="Arial" font-size="14.00" fill="#666666">[text]</text>
</g>
<!-- BATCH_JOB_EXECUTION_CONTEXT&#45;&gt;BATCH_JOB_EXECUTION -->
<g id="edge2" class="edge">
<title>BATCH_JOB_EXECUTION_CONTEXT:JOB_EXECUTION_ID&#45;&gt;BATCH_JOB_EXECUTION:JOB_EXECUTION_ID</title>
<path fill="none" stroke="#000000" d="M510.9983,-1089.8301C576.1861,-1066.4772 523.9431,-804.955 553,-734 580.0513,-667.9426 576.6182,-604.5 648,-604.5"/>
<polygon fill="#000000" stroke="#000000" points="510.8634,-1089.8526 500.2586,-1087.0615 505.9317,-1090.6763 501,-1091.5 501,-1091.5 501,-1091.5 505.9317,-1090.6763 501.7414,-1095.9385 510.8634,-1089.8526 510.8634,-1089.8526"/>
<text text-anchor="start" x="508.1635" y="-1101.5" font-family="Arial" font-size="10.00" fill="#000000">FOREIGN KEY (JOB_EXECUTION_ID) REFERENCES BATCH_JOB_EXECUTION (JOB_EXECUTION_ID)</text>
</g>
<!-- BATCH_JOB_EXECUTION_PARAMS -->
<g id="node3" class="node">
<title>BATCH_JOB_EXECUTION_PARAMS</title>
<polygon fill="#efefef" stroke="transparent" points="605,-1136.5 605,-1171.5 1053,-1171.5 1053,-1136.5 605,-1136.5"/>
<polygon fill="none" stroke="#000000" points="605,-1136.5 605,-1171.5 1053,-1171.5 1053,-1136.5 605,-1136.5"/>
<text text-anchor="start" x="611.7075" y="-1149.3" font-family="Arial Bold" font-size="18.00" fill="#000000">BATCH_JOB_EXECUTION_PARAMS</text>
<text text-anchor="start" x="918.7245" y="-1149.3" font-family="Arial" font-size="14.00" fill="#000000">    </text>
<text text-anchor="start" x="952.9293" y="-1149.3" font-family="Arial" font-size="14.00" fill="#666666">[BASE TABLE]</text>
<polygon fill="none" stroke="#000000" points="605,-1106.5 605,-1136.5 1053,-1136.5 1053,-1106.5 605,-1106.5"/>
<text text-anchor="start" x="612" y="-1117.9" font-family="Arial" font-size="14.00" fill="#000000">JOB_EXECUTION_ID    </text>
<text text-anchor="start" x="784.6578" y="-1117.9" font-family="Arial" font-size="14.00" fill="#666666">[bigint]</text>
<polygon fill="none" stroke="#000000" points="605,-1076.5 605,-1106.5 1053,-1106.5 1053,-1076.5 605,-1076.5"/>
<text text-anchor="start" x="612" y="-1087.9" font-family="Arial" font-size="14.00" fill="#000000">PARAMETER_NAME    </text>
<text text-anchor="start" x="781.5372" y="-1087.9" font-family="Arial" font-size="14.00" fill="#666666">[varchar(100)]</text>
<polygon fill="none" stroke="#000000" points="605,-1046.5 605,-1076.5 1053,-1076.5 1053,-1046.5 605,-1046.5"/>
<text text-anchor="start" x="612" y="-1057.9" font-family="Arial" font-size="14.00" fill="#000000">PARAMETER_TYPE    </text>
<text text-anchor="start" x="777.6592" y="-1057.9" font-family="Arial" font-size="14.00" fill="#666666">[varchar(100)]</text>
<polygon fill="none" stroke="#000000" points="605,-1016.5 605,-1046.5 1053,-1046.5 1053,-1016.5 605,-1016.5"/>
<text text-anchor="start" x="612" y="-1027.9" font-family="Arial" font-size="14.00" fill="#000000">PARAMETER_VALUE    </text>
<text text-anchor="start" x="786.9958" y="-1027.9" font-family="Arial" font-size="14.00" fill="#666666">[varchar(2500)]</text>
<polygon fill="none" stroke="#000000" points="605,-986.5 605,-1016.5 1053,-1016.5 1053,-986.5 605,-986.5"/>
<text text-anchor="start" x="612" y="-997.9" font-family="Arial" font-size="14.00" fill="#000000">IDENTIFYING    </text>
<text text-anchor="start" x="734.8654" y="-997.9" font-family="Arial" font-size="14.00" fill="#666666">[char(1)]</text>
</g>
<!-- BATCH_JOB_EXECUTION_PARAMS&#45;&gt;BATCH_JOB_EXECUTION -->
<g id="edge3" class="edge">
<title>BATCH_JOB_EXECUTION_PARAMS:JOB_EXECUTION_ID&#45;&gt;BATCH_JOB_EXECUTION:JOB_EXECUTION_ID</title>
<path fill="none" stroke="#000000" d="M1061.8418,-1116.712C1105.7247,-1064.5922 1064.3779,-604.5 1010,-604.5"/>
<polygon fill="#000000" stroke="#000000" points="1061.7935,-1116.7381 1050.8572,-1117.5429 1057.3967,-1119.1191 1053,-1121.5 1053,-1121.5 1053,-1121.5 1057.3967,-1119.1191 1055.1428,-1125.4571 1061.7935,-1116.7381 1061.7935,-1116.7381"/>
<text text-anchor="start" x="1060.1635" y="-1131.5" font-family="Arial" font-size="10.00" fill="#000000">FOREIGN KEY (JOB_EXECUTION_ID) REFERENCES BATCH_JOB_EXECUTION (JOB_EXECUTION_ID)</text>
</g>
<!-- BATCH_JOB_EXECUTION_SEQ -->
<g id="node4" class="node">
<title>BATCH_JOB_EXECUTION_SEQ</title>
<polygon fill="#efefef" stroke="transparent" points="1683,-1668.5 1683,-1703.5 2093,-1703.5 2093,-1668.5 1683,-1668.5"/>
<polygon fill="none" stroke="#000000" points="1683,-1668.5 1683,-1703.5 2093,-1703.5 2093,-1668.5 1683,-1668.5"/>
<text text-anchor="start" x="1689.7038" y="-1681.3" font-family="Arial Bold" font-size="18.00" fill="#000000">BATCH_JOB_EXECUTION_SEQ</text>
<text text-anchor="start" x="1958.7282" y="-1681.3" font-family="Arial" font-size="14.00" fill="#000000">    </text>
<text text-anchor="start" x="1992.933" y="-1681.3" font-family="Arial" font-size="14.00" fill="#666666">[BASE TABLE]</text>
<polygon fill="none" stroke="#000000" points="1683,-1638.5 1683,-1668.5 2093,-1668.5 2093,-1638.5 1683,-1638.5"/>
<text text-anchor="start" x="1690" y="-1649.9" font-family="Arial" font-size="14.00" fill="#000000">ID    </text>
<text text-anchor="start" x="1738.202" y="-1649.9" font-family="Arial" font-size="14.00" fill="#666666">[bigint]</text>
<polygon fill="none" stroke="#000000" points="1683,-1608.5 1683,-1638.5 2093,-1638.5 2093,-1608.5 1683,-1608.5"/>
<text text-anchor="start" x="1690" y="-1619.9" font-family="Arial" font-size="14.00" fill="#000000">UNIQUE_KEY    </text>
<text text-anchor="start" x="1814.4348" y="-1619.9" font-family="Arial" font-size="14.00" fill="#666666">[char(1)]</text>
</g>
<!-- BATCH_JOB_SEQ -->
<g id="node6" class="node">
<title>BATCH_JOB_SEQ</title>
<polygon fill="#efefef" stroke="transparent" points="2198,-1668.5 2198,-1703.5 2493,-1703.5 2493,-1668.5 2198,-1668.5"/>
<polygon fill="none" stroke="#000000" points="2198,-1668.5 2198,-1703.5 2493,-1703.5 2493,-1668.5 2198,-1668.5"/>
<text text-anchor="start" x="2204.7048" y="-1681.3" font-family="Arial Bold" font-size="18.00" fill="#000000">BATCH_JOB_SEQ</text>
<text text-anchor="start" x="2358.7272" y="-1681.3" font-family="Arial" font-size="14.00" fill="#000000">    </text>
<text text-anchor="start" x="2392.932" y="-1681.3" font-family="Arial" font-size="14.00" fill="#666666">[BASE TABLE]</text>
<polygon fill="none" stroke="#000000" points="2198,-1638.5 2198,-1668.5 2493,-1668.5 2493,-1638.5 2198,-1638.5"/>
<text text-anchor="start" x="2205" y="-1649.9" font-family="Arial" font-size="14.00" fill="#000000">ID    </text>
<text text-anchor="start" x="2253.202" y="-1649.9" font-family="Arial" font-size="14.00" fill="#666666">[bigint]</text>
<polygon fill="none" stroke="#000000" points="2198,-1608.5 2198,-1638.5 2493,-1638.5 2493,-1608.5 2198,-1608.5"/>
<text text-anchor="start" x="2205" y="-1619.9" font-family="Arial" font-size="14.00" fill="#000000">UNIQUE_KEY    </text>
<text text-anchor="start" x="2329.4348" y="-1619.9" font-family="Arial" font-size="14.00" fill="#666666">[char(1)]</text>
</g>
<!-- BATCH_STEP_EXECUTION -->
<g id="node7" class="node">
<title>BATCH_STEP_EXECUTION</title>
<polygon fill="#efefef" stroke="transparent" points="1157,-1346.5 1157,-1381.5 1531,-1381.5 1531,-1346.5 1157,-1346.5"/>
<polygon fill="none" stroke="#000000" points="1157,-1346.5 1157,-1381.5 1531,-1381.5 1531,-1346.5 1157,-1346.5"/>
<text text-anchor="start" x="1163.711" y="-1359.3" font-family="Arial Bold" font-size="18.00" fill="#000000">BATCH_STEP_EXECUTION</text>
<text text-anchor="start" x="1396.721" y="-1359.3" font-family="Arial" font-size="14.00" fill="#000000">    </text>
<text text-anchor="start" x="1430.9258" y="-1359.3" font-family="Arial" font-size="14.00" fill="#666666">[BASE TABLE]</text>
<polygon fill="none" stroke="#000000" points="1157,-1316.5 1157,-1346.5 1531,-1346.5 1531,-1316.5 1157,-1316.5"/>
<text text-anchor="start" x="1164" y="-1327.9" font-family="Arial" font-size="14.00" fill="#000000">STEP_EXECUTION_ID    </text>
<text text-anchor="start" x="1345.993" y="-1327.9" font-family="Arial" font-size="14.00" fill="#666666">[bigint]</text>
<polygon fill="none" stroke="#000000" points="1157,-1286.5 1157,-1316.5 1531,-1316.5 1531,-1286.5 1157,-1286.5"/>
<text text-anchor="start" x="1164" y="-1297.9" font-family="Arial" font-size="14.00" fill="#000000">VERSION    </text>
<text text-anchor="start" x="1261.209" y="-1297.9" font-family="Arial" font-size="14.00" fill="#666666">[bigint]</text>
<polygon fill="none" stroke="#000000" points="1157,-1256.5 1157,-1286.5 1531,-1286.5 1531,-1256.5 1157,-1256.5"/>
<text text-anchor="start" x="1164" y="-1267.9" font-family="Arial" font-size="14.00" fill="#000000">STEP_NAME    </text>
<text text-anchor="start" x="1282.9902" y="-1267.9" font-family="Arial" font-size="14.00" fill="#666666">[varchar(100)]</text>
<polygon fill="none" stroke="#000000" points="1157,-1226.5 1157,-1256.5 1531,-1256.5 1531,-1226.5 1157,-1226.5"/>
<text text-anchor="start" x="1164" y="-1237.9" font-family="Arial" font-size="14.00" fill="#000000">JOB_EXECUTION_ID    </text>
<text text-anchor="start" x="1336.6578" y="-1237.9" font-family="Arial" font-size="14.00" fill="#666666">[bigint]</text>
<polygon fill="none" stroke="#000000" points="1157,-1196.5 1157,-1226.5 1531,-1226.5 1531,-1196.5 1157,-1196.5"/>
<text text-anchor="start" x="1164" y="-1207.9" font-family="Arial" font-size="14.00" fill="#000000">CREATE_TIME    </text>
<text text-anchor="start" x="1296.2034" y="-1207.9" font-family="Arial" font-size="14.00" fill="#666666">[datetime(6)]</text>
<polygon fill="none" stroke="#000000" points="1157,-1166.5 1157,-1196.5 1531,-1196.5 1531,-1166.5 1157,-1166.5"/>
<text text-anchor="start" x="1164" y="-1177.9" font-family="Arial" font-size="14.00" fill="#000000">START_TIME    </text>
<text text-anchor="start" x="1285.3128" y="-1177.9" font-family="Arial" font-size="14.00" fill="#666666">[datetime(6)]</text>
<polygon fill="none" stroke="#000000" points="1157,-1136.5 1157,-1166.5 1531,-1166.5 1531,-1136.5 1157,-1136.5"/>
<text text-anchor="start" x="1164" y="-1147.9" font-family="Arial" font-size="14.00" fill="#000000">END_TIME    </text>
<text text-anchor="start" x="1268.9776" y="-1147.9" font-family="Arial" font-size="14.00" fill="#666666">[datetime(6)]</text>
<polygon fill="none" stroke="#000000" points="1157,-1106.5 1157,-1136.5 1531,-1136.5 1531,-1106.5 1157,-1106.5"/>
<text text-anchor="start" x="1164" y="-1117.9" font-family="Arial" font-size="14.00" fill="#000000">STATUS    </text>
<text text-anchor="start" x="1253.4264" y="-1117.9" font-family="Arial" font-size="14.00" fill="#666666">[varchar(10)]</text>
<polygon fill="none" stroke="#000000" points="1157,-1076.5 1157,-1106.5 1531,-1106.5 1531,-1076.5 1157,-1076.5"/>
<text text-anchor="start" x="1164" y="-1087.9" font-family="Arial" font-size="14.00" fill="#000000">COMMIT_COUNT    </text>
<text text-anchor="start" x="1312.512" y="-1087.9" font-family="Arial" font-size="14.00" fill="#666666">[bigint]</text>
<polygon fill="none" stroke="#000000" points="1157,-1046.5 1157,-1076.5 1531,-1076.5 1531,-1046.5 1157,-1046.5"/>
<text text-anchor="start" x="1164" y="-1057.9" font-family="Arial" font-size="14.00" fill="#000000">READ_COUNT    </text>
<text text-anchor="start" x="1294.6368" y="-1057.9" font-family="Arial" font-size="14.00" fill="#666666">[bigint]</text>
<polygon fill="none" stroke="#000000" points="1157,-1016.5 1157,-1046.5 1531,-1046.5 1531,-1016.5 1157,-1016.5"/>
<text text-anchor="start" x="1164" y="-1027.9" font-family="Arial" font-size="14.00" fill="#000000">FILTER_COUNT    </text>
<text text-anchor="start" x="1303.972" y="-1027.9" font-family="Arial" font-size="14.00" fill="#666666">[bigint]</text>
<polygon fill="none" stroke="#000000" points="1157,-986.5 1157,-1016.5 1531,-1016.5 1531,-986.5 1157,-986.5"/>
<text text-anchor="start" x="1164" y="-997.9" font-family="Arial" font-size="14.00" fill="#000000">WRITE_COUNT    </text>
<text text-anchor="start" x="1300.8514" y="-997.9" font-family="Arial" font-size="14.00" fill="#666666">[bigint]</text>
<polygon fill="none" stroke="#000000" points="1157,-956.5 1157,-986.5 1531,-986.5 1531,-956.5 1157,-956.5"/>
<text text-anchor="start" x="1164" y="-967.9" font-family="Arial" font-size="14.00" fill="#000000">READ_SKIP_COUNT    </text>
<text text-anchor="start" x="1334.3198" y="-967.9" font-family="Arial" font-size="14.00" fill="#666666">[bigint]</text>
<polygon fill="none" stroke="#000000" points="1157,-926.5 1157,-956.5 1531,-956.5 1531,-926.5 1157,-926.5"/>
<text text-anchor="start" x="1164" y="-937.9" font-family="Arial" font-size="14.00" fill="#000000">WRITE_SKIP_COUNT    </text>
<text text-anchor="start" x="1340.5344" y="-937.9" font-family="Arial" font-size="14.00" fill="#666666">[bigint]</text>
<polygon fill="none" stroke="#000000" points="1157,-896.5 1157,-926.5 1531,-926.5 1531,-896.5 1157,-896.5"/>
<text text-anchor="start" x="1164" y="-907.9" font-family="Arial" font-size="14.00" fill="#000000">PROCESS_SKIP_COUNT    </text>
<text text-anchor="start" x="1363.8836" y="-907.9" font-family="Arial" font-size="14.00" fill="#666666">[bigint]</text>
<polygon fill="none" stroke="#000000" points="1157,-866.5 1157,-896.5 1531,-896.5 1531,-866.5 1157,-866.5"/>
<text text-anchor="start" x="1164" y="-877.9" font-family="Arial" font-size="14.00" fill="#000000">ROLLBACK_COUNT    </text>
<text text-anchor="start" x="1330.4292" y="-877.9" font-family="Arial" font-size="14.00" fill="#666666">[bigint]</text>
<polygon fill="none" stroke="#000000" points="1157,-836.5 1157,-866.5 1531,-866.5 1531,-836.5 1157,-836.5"/>
<text text-anchor="start" x="1164" y="-847.9" font-family="Arial" font-size="14.00" fill="#000000">EXIT_CODE    </text>
<text text-anchor="start" x="1277.5442" y="-847.9" font-family="Arial" font-size="14.00" fill="#666666">[varchar(2500)]</text>
<polygon fill="none" stroke="#000000" points="1157,-806.5 1157,-836.5 1531,-836.5 1531,-806.5 1157,-806.5"/>
<text text-anchor="start" x="1164" y="-817.9" font-family="Arial" font-size="14.00" fill="#000000">EXIT_MESSAGE    </text>
<text text-anchor="start" x="1306.338" y="-817.9" font-family="Arial" font-size="14.00" fill="#666666">[varchar(2500)]</text>
<polygon fill="none" stroke="#000000" points="1157,-776.5 1157,-806.5 1531,-806.5 1531,-776.5 1157,-776.5"/>
<text text-anchor="start" x="1164" y="-787.9" font-family="Arial" font-size="14.00" fill="#000000">LAST_UPDATED    </text>
<text text-anchor="start" x="1307.878" y="-787.9" font-family="Arial" font-size="14.00" fill="#666666">[datetime(6)]</text>
</g>
<!-- BATCH_STEP_EXECUTION&#45;&gt;BATCH_JOB_EXECUTION -->
<g id="edge4" class="edge">
<title>BATCH_STEP_EXECUTION:JOB_EXECUTION_ID&#45;&gt;BATCH_JOB_EXECUTION:JOB_EXECUTION_ID</title>
<path fill="none" stroke="#000000" d="M1147.8523,-1236.99C1103.0955,-1189.6056 1124.1729,-783.7995 1105,-734 1079.3529,-667.3848 1081.3818,-604.5 1010,-604.5"/>
<polygon fill="#000000" stroke="#000000" points="1148.0308,-1237.078 1155.0101,-1245.5361 1152.5154,-1239.289 1157,-1241.5 1157,-1241.5 1157,-1241.5 1152.5154,-1239.289 1158.9899,-1237.4639 1148.0308,-1237.078 1148.0308,-1237.078"/>
<text text-anchor="start" x="669.1635" y="-1251.5" font-family="Arial" font-size="10.00" fill="#000000">FOREIGN KEY (JOB_EXECUTION_ID) REFERENCES BATCH_JOB_EXECUTION (JOB_EXECUTION_ID)</text>
</g>
<!-- BATCH_STEP_EXECUTION_CONTEXT -->
<g id="node8" class="node">
<title>BATCH_STEP_EXECUTION_CONTEXT</title>
<polygon fill="#efefef" stroke="transparent" points="1109,-1683.5 1109,-1718.5 1579,-1718.5 1579,-1683.5 1109,-1683.5"/>
<polygon fill="none" stroke="#000000" points="1109,-1683.5 1109,-1718.5 1579,-1718.5 1579,-1683.5 1109,-1683.5"/>
<text text-anchor="start" x="1115.7122" y="-1696.3" font-family="Arial Bold" font-size="18.00" fill="#000000">BATCH_STEP_EXECUTION_CONTEXT</text>
<text text-anchor="start" x="1444.7198" y="-1696.3" font-family="Arial" font-size="14.00" fill="#000000">    </text>
<text text-anchor="start" x="1478.9246" y="-1696.3" font-family="Arial" font-size="14.00" fill="#666666">[BASE TABLE]</text>
<polygon fill="none" stroke="#000000" points="1109,-1653.5 1109,-1683.5 1579,-1683.5 1579,-1653.5 1109,-1653.5"/>
<text text-anchor="start" x="1116" y="-1664.9" font-family="Arial" font-size="14.00" fill="#000000">STEP_EXECUTION_ID    </text>
<text text-anchor="start" x="1297.993" y="-1664.9" font-family="Arial" font-size="14.00" fill="#666666">[bigint]</text>
<polygon fill="none" stroke="#000000" points="1109,-1623.5 1109,-1653.5 1579,-1653.5 1579,-1623.5 1109,-1623.5"/>
<text text-anchor="start" x="1116" y="-1634.9" font-family="Arial" font-size="14.00" fill="#000000">SHORT_CONTEXT    </text>
<text text-anchor="start" x="1273.8626" y="-1634.9" font-family="Arial" font-size="14.00" fill="#666666">[varchar(2500)]</text>
<polygon fill="none" stroke="#000000" points="1109,-1593.5 1109,-1623.5 1579,-1623.5 1579,-1593.5 1109,-1593.5"/>
<text text-anchor="start" x="1116" y="-1604.9" font-family="Arial" font-size="14.00" fill="#000000">SERIALIZED_CONTEXT    </text>
<text text-anchor="start" x="1306.5456" y="-1604.9" font-family="Arial" font-size="14.00" fill="#666666">[text]</text>
</g>
<!-- BATCH_STEP_EXECUTION_CONTEXT&#45;&gt;BATCH_STEP_EXECUTION -->
<g id="edge5" class="edge">
<title>BATCH_STEP_EXECUTION_CONTEXT:STEP_EXECUTION_ID&#45;&gt;BATCH_STEP_EXECUTION:STEP_EXECUTION_ID</title>
<path fill="none" stroke="#000000" d="M1588.8324,-1666.348C1650.084,-1637.6467 1603.0989,-1331.5 1531,-1331.5"/>
<polygon fill="#000000" stroke="#000000" points="1588.7688,-1666.3618 1578.0378,-1664.1041 1583.8844,-1667.4309 1579,-1668.5 1579,-1668.5 1579,-1668.5 1583.8844,-1667.4309 1579.9622,-1672.8959 1588.7688,-1666.3618 1588.7688,-1666.3618"/>
<text text-anchor="start" x="1586.1615" y="-1678.5" font-family="Arial" font-size="10.00" fill="#000000">FOREIGN KEY (STEP_EXECUTION_ID) REFERENCES BATCH_STEP_EXECUTION (STEP_EXECUTION_ID)</text>
</g>
<!-- BATCH_STEP_EXECUTION_SEQ -->
<g id="node9" class="node">
<title>BATCH_STEP_EXECUTION_SEQ</title>
<polygon fill="#efefef" stroke="transparent" points="2597,-1668.5 2597,-1703.5 3019,-1703.5 3019,-1668.5 2597,-1668.5"/>
<polygon fill="none" stroke="#000000" points="2597,-1668.5 2597,-1703.5 3019,-1703.5 3019,-1668.5 2597,-1668.5"/>
<text text-anchor="start" x="2603.7026" y="-1681.3" font-family="Arial Bold" font-size="18.00" fill="#000000">BATCH_STEP_EXECUTION_SEQ</text>
<text text-anchor="start" x="2884.7294" y="-1681.3" font-family="Arial" font-size="14.00" fill="#000000">    </text>
<text text-anchor="start" x="2918.9342" y="-1681.3" font-family="Arial" font-size="14.00" fill="#666666">[BASE TABLE]</text>
<polygon fill="none" stroke="#000000" points="2597,-1638.5 2597,-1668.5 3019,-1668.5 3019,-1638.5 2597,-1638.5"/>
<text text-anchor="start" x="2604" y="-1649.9" font-family="Arial" font-size="14.00" fill="#000000">ID    </text>
<text text-anchor="start" x="2652.202" y="-1649.9" font-family="Arial" font-size="14.00" fill="#666666">[bigint]</text>
<polygon fill="none" stroke="#000000" points="2597,-1608.5 2597,-1638.5 3019,-1638.5 3019,-1608.5 2597,-1608.5"/>
<text text-anchor="start" x="2604" y="-1619.9" font-family="Arial" font-size="14.00" fill="#000000">UNIQUE_KEY    </text>
<text text-anchor="start" x="2728.4348" y="-1619.9" font-family="Arial" font-size="14.00" fill="#666666">[char(1)]</text>
</g>
<!-- CRAWLER_INFO_CONTENTS -->
<g id="node10" class="node">
<title>CRAWLER_INFO_CONTENTS</title>
<polygon fill="#efefef" stroke="transparent" points="3124,-1773.5 3124,-1808.5 3517,-1808.5 3517,-1773.5 3124,-1773.5"/>
<polygon fill="none" stroke="#000000" points="3124,-1773.5 3124,-1808.5 3517,-1808.5 3517,-1773.5 3124,-1773.5"/>
<text text-anchor="start" x="3130.7259" y="-1786.3" font-family="Arial Bold" font-size="18.00" fill="#000000">CRAWLER_INFO_CONTENTS</text>
<text text-anchor="start" x="3382.7061" y="-1786.3" font-family="Arial" font-size="14.00" fill="#000000">    </text>
<text text-anchor="start" x="3416.9109" y="-1786.3" font-family="Arial" font-size="14.00" fill="#666666">[BASE TABLE]</text>
<polygon fill="none" stroke="#000000" points="3124,-1743.5 3124,-1773.5 3517,-1773.5 3517,-1743.5 3124,-1743.5"/>
<text text-anchor="start" x="3131" y="-1754.9" font-family="Arial" font-size="14.00" fill="#000000">SEQ    </text>
<text text-anchor="start" x="3194.7686" y="-1754.9" font-family="Arial" font-size="14.00" fill="#666666">[bigint]</text>
<polygon fill="none" stroke="#000000" points="3124,-1713.5 3124,-1743.5 3517,-1743.5 3517,-1713.5 3124,-1713.5"/>
<text text-anchor="start" x="3131" y="-1724.9" font-family="Arial" font-size="14.00" fill="#000000">SITE_SEQ    </text>
<text text-anchor="start" x="3233.6676" y="-1724.9" font-family="Arial" font-size="14.00" fill="#666666">[bigint]</text>
<polygon fill="none" stroke="#000000" points="3124,-1683.5 3124,-1713.5 3517,-1713.5 3517,-1683.5 3124,-1683.5"/>
<text text-anchor="start" x="3131" y="-1694.9" font-family="Arial" font-size="14.00" fill="#000000">CONTENTS_SEQ    </text>
<text text-anchor="start" x="3279.54" y="-1694.9" font-family="Arial" font-size="14.00" fill="#666666">[text]</text>
<polygon fill="none" stroke="#000000" points="3124,-1653.5 3124,-1683.5 3517,-1683.5 3517,-1653.5 3124,-1653.5"/>
<text text-anchor="start" x="3131" y="-1664.9" font-family="Arial" font-size="14.00" fill="#000000">CONTENTS_URL    </text>
<text text-anchor="start" x="3277.972" y="-1664.9" font-family="Arial" font-size="14.00" fill="#666666">[text]</text>
<polygon fill="none" stroke="#000000" points="3124,-1623.5 3124,-1653.5 3517,-1653.5 3517,-1623.5 3124,-1623.5"/>
<text text-anchor="start" x="3131" y="-1634.9" font-family="Arial" font-size="14.00" fill="#000000">TITLE    </text>
<text text-anchor="start" x="3203.3198" y="-1634.9" font-family="Arial" font-size="14.00" fill="#666666">[text]</text>
<polygon fill="none" stroke="#000000" points="3124,-1593.5 3124,-1623.5 3517,-1623.5 3517,-1593.5 3124,-1593.5"/>
<text text-anchor="start" x="3131" y="-1604.9" font-family="Arial" font-size="14.00" fill="#000000">CONTENTS    </text>
<text text-anchor="start" x="3242.1936" y="-1604.9" font-family="Arial" font-size="14.00" fill="#666666">[text]</text>
<polygon fill="none" stroke="#000000" points="3124,-1563.5 3124,-1593.5 3517,-1593.5 3517,-1563.5 3124,-1563.5"/>
<text text-anchor="start" x="3131" y="-1574.9" font-family="Arial" font-size="14.00" fill="#000000">STATUS    </text>
<text text-anchor="start" x="3220.4264" y="-1574.9" font-family="Arial" font-size="14.00" fill="#666666">[varchar(100)]</text>
<polygon fill="none" stroke="#000000" points="3124,-1533.5 3124,-1563.5 3517,-1563.5 3517,-1533.5 3124,-1533.5"/>
<text text-anchor="start" x="3131" y="-1544.9" font-family="Arial" font-size="14.00" fill="#000000">INSERTED_AT    </text>
<text text-anchor="start" x="3261.6494" y="-1544.9" font-family="Arial" font-size="14.00" fill="#666666">[datetime]</text>
<polygon fill="none" stroke="#000000" points="3124,-1503.5 3124,-1533.5 3517,-1533.5 3517,-1503.5 3124,-1503.5"/>
<text text-anchor="start" x="3131" y="-1514.9" font-family="Arial" font-size="14.00" fill="#000000">UPDATED_AT    </text>
<text text-anchor="start" x="3257.7588" y="-1514.9" font-family="Arial" font-size="14.00" fill="#666666">[datetime]</text>
</g>
<!-- CRAWLER_SITE_INFO -->
<g id="node11" class="node">
<title>CRAWLER_SITE_INFO</title>
<polygon fill="#efefef" stroke="transparent" points="3621,-1743.5 3621,-1778.5 3955,-1778.5 3955,-1743.5 3621,-1743.5"/>
<polygon fill="none" stroke="#000000" points="3621,-1743.5 3621,-1778.5 3955,-1778.5 3955,-1743.5 3621,-1743.5"/>
<text text-anchor="start" x="3627.7153" y="-1756.3" font-family="Arial Bold" font-size="18.00" fill="#000000">CRAWLER_SITE_INFO</text>
<text text-anchor="start" x="3820.7167" y="-1756.3" font-family="Arial" font-size="14.00" fill="#000000">    </text>
<text text-anchor="start" x="3854.9215" y="-1756.3" font-family="Arial" font-size="14.00" fill="#666666">[BASE TABLE]</text>
<polygon fill="none" stroke="#000000" points="3621,-1713.5 3621,-1743.5 3955,-1743.5 3955,-1713.5 3621,-1713.5"/>
<text text-anchor="start" x="3628" y="-1724.9" font-family="Arial" font-size="14.00" fill="#000000">SEQ    </text>
<text text-anchor="start" x="3691.7686" y="-1724.9" font-family="Arial" font-size="14.00" fill="#666666">[bigint]</text>
<polygon fill="none" stroke="#000000" points="3621,-1683.5 3621,-1713.5 3955,-1713.5 3955,-1683.5 3621,-1683.5"/>
<text text-anchor="start" x="3628" y="-1694.9" font-family="Arial" font-size="14.00" fill="#000000">SITE    </text>
<text text-anchor="start" x="3693.3212" y="-1694.9" font-family="Arial" font-size="14.00" fill="#666666">[varchar(50)]</text>
<polygon fill="none" stroke="#000000" points="3621,-1653.5 3621,-1683.5 3955,-1683.5 3955,-1653.5 3621,-1653.5"/>
<text text-anchor="start" x="3628" y="-1664.9" font-family="Arial" font-size="14.00" fill="#000000">SITE_NAME    </text>
<text text-anchor="start" x="3741.5442" y="-1664.9" font-family="Arial" font-size="14.00" fill="#666666">[varchar(100)]</text>
<polygon fill="none" stroke="#000000" points="3621,-1623.5 3621,-1653.5 3955,-1653.5 3955,-1623.5 3621,-1623.5"/>
<text text-anchor="start" x="3628" y="-1634.9" font-family="Arial" font-size="14.00" fill="#000000">SITE_BASE_URL    </text>
<text text-anchor="start" x="3774.2286" y="-1634.9" font-family="Arial" font-size="14.00" fill="#666666">[varchar(200)]</text>
<polygon fill="none" stroke="#000000" points="3621,-1593.5 3621,-1623.5 3955,-1623.5 3955,-1593.5 3621,-1593.5"/>
<text text-anchor="start" x="3628" y="-1604.9" font-family="Arial" font-size="14.00" fill="#000000">CRAWLER_YN    </text>
<text text-anchor="start" x="3759.4208" y="-1604.9" font-family="Arial" font-size="14.00" fill="#666666">[varchar(1)]</text>
<polygon fill="none" stroke="#000000" points="3621,-1563.5 3621,-1593.5 3955,-1593.5 3955,-1563.5 3621,-1563.5"/>
<text text-anchor="start" x="3628" y="-1574.9" font-family="Arial" font-size="14.00" fill="#000000">INSERTED_AT    </text>
<text text-anchor="start" x="3758.6494" y="-1574.9" font-family="Arial" font-size="14.00" fill="#666666">[datetime]</text>
<polygon fill="none" stroke="#000000" points="3621,-1533.5 3621,-1563.5 3955,-1563.5 3955,-1533.5 3621,-1533.5"/>
<text text-anchor="start" x="3628" y="-1544.9" font-family="Arial" font-size="14.00" fill="#000000">UPDATED_AT    </text>
<text text-anchor="start" x="3754.7588" y="-1544.9" font-family="Arial" font-size="14.00" fill="#666666">[datetime]</text>
</g>
<!-- USER -->
<g id="node12" class="node">
<title>USER</title>
<polygon fill="#efefef" stroke="transparent" points="4060,-1728.5 4060,-1763.5 4289,-1763.5 4289,-1728.5 4060,-1728.5"/>
<polygon fill="none" stroke="#000000" points="4060,-1728.5 4060,-1763.5 4289,-1763.5 4289,-1728.5 4060,-1728.5"/>
<text text-anchor="start" x="4085.7176" y="-1741.3" font-family="Arial Bold" font-size="18.00" fill="#000000">USER</text>
<text text-anchor="start" x="4135.7144" y="-1741.3" font-family="Arial" font-size="14.00" fill="#000000">    </text>
<text text-anchor="start" x="4169.9192" y="-1741.3" font-family="Arial" font-size="14.00" fill="#666666">[BASE TABLE]</text>
<polygon fill="none" stroke="#000000" points="4060,-1698.5 4060,-1728.5 4289,-1728.5 4289,-1698.5 4060,-1698.5"/>
<text text-anchor="start" x="4067" y="-1709.9" font-family="Arial" font-size="14.00" fill="#000000">USER_SEQ    </text>
<text text-anchor="start" x="4177.4376" y="-1709.9" font-family="Arial" font-size="14.00" fill="#666666">[bigint]</text>
<polygon fill="none" stroke="#000000" points="4060,-1668.5 4060,-1698.5 4289,-1698.5 4289,-1668.5 4060,-1668.5"/>
<text text-anchor="start" x="4067" y="-1679.9" font-family="Arial" font-size="14.00" fill="#000000">USER_ID    </text>
<text text-anchor="start" x="4161.871" y="-1679.9" font-family="Arial" font-size="14.00" fill="#666666">[varchar(100)]</text>
<polygon fill="none" stroke="#000000" points="4060,-1638.5 4060,-1668.5 4289,-1668.5 4289,-1638.5 4060,-1638.5"/>
<text text-anchor="start" x="4067" y="-1649.9" font-family="Arial" font-size="14.00" fill="#000000">USER_NAME    </text>
<text text-anchor="start" x="4188.3142" y="-1649.9" font-family="Arial" font-size="14.00" fill="#666666">[varchar(100)]</text>
<polygon fill="none" stroke="#000000" points="4060,-1608.5 4060,-1638.5 4289,-1638.5 4289,-1608.5 4060,-1608.5"/>
<text text-anchor="start" x="4066.784" y="-1619.9" font-family="Arial" font-size="14.00" fill="#000000">USER_STATUS    </text>
<text text-anchor="start" x="4202.8794" y="-1619.9" font-family="Arial" font-size="14.00" fill="#666666">[varchar(50)]</text>
<polygon fill="none" stroke="#000000" points="4060,-1578.5 4060,-1608.5 4289,-1608.5 4289,-1578.5 4060,-1578.5"/>
<text text-anchor="start" x="4067" y="-1589.9" font-family="Arial" font-size="14.00" fill="#000000">INSERTED_AT    </text>
<text text-anchor="start" x="4197.6494" y="-1589.9" font-family="Arial" font-size="14.00" fill="#666666">[datetime]</text>
<polygon fill="none" stroke="#000000" points="4060,-1548.5 4060,-1578.5 4289,-1578.5 4289,-1548.5 4060,-1548.5"/>
<text text-anchor="start" x="4067" y="-1559.9" font-family="Arial" font-size="14.00" fill="#000000">UPDATED_AT    </text>
<text text-anchor="start" x="4193.7588" y="-1559.9" font-family="Arial" font-size="14.00" fill="#666666">[datetime]</text>
</g>
</g>
</svg>
